<svg xmlns="http://www.w3.org/2000/svg" width="1536" height="1024" viewBox="0.0 0.0 1536.0 1024.0"><g id="others"><path transform="" id="68" d="M 800.674,798.899 C 799.891,798.688 798.875,798.634 798.417,798.779 C 797.959,798.923 797.455,798.832 797.298,798.577 C 797.140,798.322 796.165,797.960 795.130,797.772 C 792.256,797.250 789.735,796.307 784,793.607 C 781.112,792.249 776.612,790.160 774,788.968 C 771.388,787.777 762.837,783.680 755,779.865 C 739.270,772.209 729.133,767.431 726.582,766.471 C 725.665,766.126 724.643,765.572 724.309,765.239 C 723.976,764.905 721.646,763.360 719.130,761.803 C 712.082,757.444 709.877,754.242 710.739,749.625 C 711.215,747.077 714.561,743.893 717.681,743.019 C 718.972,742.658 720.178,742.511 720.359,742.692 C 720.540,742.874 720.308,744.087 719.842,745.386 C 719.376,746.687 718.996,748.972 718.997,750.467 C 719,753.057 719.112,753.292 721.404,755.501 C 723.029,757.067 726.799,759.412 733.029,762.731 C 738.101,765.433 745.062,769.154 748.500,770.999 C 751.938,772.845 756.775,775.434 759.250,776.755 C 766.632,780.693 778.428,787.463 783.466,790.653 C 786.060,792.295 789.345,794.170 790.765,794.821 C 793.266,795.966 803.052,797.779 804.189,797.308 C 804.497,797.181 801.656,794.058 797.875,790.369 C 794.094,786.679 791,783.513 791,783.331 C 791,782.451 792.773,783.327 798.509,787.043 C 808.746,793.674 816.452,797.201 818.764,796.314 C 820.354,795.704 817.372,792.048 811.414,787.303 C 808.882,785.287 804.674,780.159 805.156,779.677 C 805.864,778.969 808.292,780.309 815.779,785.538 C 824.965,791.954 827.771,793.500 830.234,793.500 C 832.257,793.500 832.393,793.866 831.018,795.614 C 830.133,796.739 829.580,796.889 825.393,797.140 C 822.455,797.317 819.788,797.800 818.131,798.456 C 815.879,799.346 814.572,799.477 808.805,799.386 C 805.116,799.329 801.458,799.109 800.674,798.899" stroke="#EB6E19" fill="#EB6E19" stroke-width="1" />
  <path id="46" d="M 703.160,698.314 C 700.223,697.778 700.106,697.702 700.785,696.779 C 701.178,696.245 701.500,695.402 701.500,694.904 C 704.139,689.668 708.743,693.792 710.682,694.429 C 712.035,695.841 712.037,695.855 711.145,697.420 C 710.363,698.795 709.997,698.986 708.250,698.936 C 707.150,698.904 704.860,698.624 703.160,698.314" stroke="#28C5C5" fill="#28C5C5" stroke-width="1" />
  <path id="55" d="M 922.875,740.694 C 921.294,739.452 920,738.194 920,737.898 C 920,737.393 922.957,737.554 926.500,738.253 C 928.931,738.731 937.774,740.893 939.500,741.430 C 941.231,741.969 941.226,741.972 939,741.702 C 937.763,741.553 935.994,741.196 935.069,740.908 C 932.418,740.085 928.003,740.637 926.962,741.923 C 926.482,742.515 926.014,742.990 925.920,742.976 C 925.827,742.963 924.456,741.937 922.875,740.694" stroke="#FB862D" fill="#FB862D" stroke-width="1" />
  <path id="68" d="M 849.197,723.917 C 849.197,723.917 849.278,721.085 849.278,721.085 C 849.278,721.085 844.372,720.459 844.372,720.459 C 841.674,720.115 839.643,719.673 839.858,719.476 C 840.073,719.278 842.500,719.438 845.250,719.831 C 848,720.224 850.756,720.454 851.375,720.342 C 852.554,720.129 852.896,720.696 851.943,721.285 C 851.636,721.475 850.875,722.782 850.251,724.189 C 850.251,724.189 849.116,726.750 849.116,726.750 C 849.116,726.750 849.197,723.917 849.197,723.917" stroke="#EB6E19" fill="#EB6E19" stroke-width="1" />
  <path id="68" d="M 938.279,780.047 C 938.103,779.762 937.287,779.668 936.451,779.835 C 935.620,780.001 934.447,779.898 933.845,779.605 C 932.625,779.013 926.016,777.721 925.278,777.931 C 925.018,778.005 924.342,777.838 923.778,777.562 C 923.212,777.285 921.124,776.707 919.135,776.276 C 915.867,775.567 907.421,773.519 876.683,765.981 C 871.146,764.624 864.688,762.832 862.333,762.001 C 846.746,756.500 837.886,749.433 839.596,743.863 C 840.234,741.784 842.360,739.024 844.492,737.505 C 844.492,737.505 845.944,736.471 845.944,736.471 C 845.944,736.471 845.655,739.923 845.655,739.923 C 845.496,741.822 845.519,744.196 845.707,745.198 C 846.409,748.939 852.059,753.442 858.904,755.714 C 866.023,758.077 919.197,770.424 928.250,771.815 C 936.156,773.030 948,773.039 951.126,771.833 C 955.309,770.220 956.207,767.284 953.381,764.458 C 952.491,763.568 949.173,760.931 946.006,758.597 C 939.794,754.019 929,745.529 929,745.221 C 929,744.763 930.942,745.850 933.248,747.598 C 934.624,748.642 935.995,749.497 936.294,749.498 C 936.594,749.499 939.115,750.613 941.896,751.973 C 952.828,757.319 958.293,761.106 960.797,765.073 C 962.004,766.986 962.365,769.386 961.580,770.275 C 961.349,770.536 960.856,771.538 960.483,772.500 C 958.944,776.475 956.476,778.447 951.610,779.591 C 948.322,780.364 938.679,780.693 938.279,780.047" stroke="#EB6E19" fill="#EB6E19" stroke-width="1" />
  </g><g id="wave 3"><path id="39" d="M 553.264,648.917 C 551.740,644.631 551.624,638.874 553.013,636.595 C 554.107,634.801 556.599,633.500 558.944,633.500 C 560.186,633.500 560.475,633.745 560.258,635.536 C 559.624,632.649 558.471,634.119 558.718,637.500 C 558.788,638.462 558.995,639.925 559.176,640.750 C 556.659,640.413 556.659,642.150 555.894,642.932 C 555.562,641.934 553.601,643.527 554.845,647.073 C 554.753,649.103 553.746,650.275 553.264,648.917" stroke="#F4EAD2" fill="#F4EAD2" stroke-width="1" />
  <path id="61" d="M 1114.749,914.870 C 1114.338,914.639 1113.982,913.955 1113.960,913.350 C 1107.255,910.995 1107.255,911.227 1105.511,910.783 C 1104.405,910.814 1103.500,910.651 1103.500,910.420 C 1104.831,910.536 1107.073,908.495 1107.176,908.972 C 1107.886,909.242 1109.092,909.444 1109.858,909.422 C 1110.623,909.399 1112.375,909.518 1113.750,909.686 C 1115.125,909.854 1118.928,910.225 1122.200,910.512 C 1125.473,910.799 1128.344,911.154 1128.582,911.301 C 1128.819,911.447 1128.801,911.946 1128.542,912.409 C 1127.978,913.418 1115.980,915.559 1114.749,914.870" stroke="#1DB7BB" fill="#1DB7BB" stroke-width="1" />
  <path id="68" d="M 676,695.488 C 675.038,695.264 671.888,694.818 669,694.500 C 666.112,694.182 662.962,693.736 662,693.512 C 662,693.512 660.250,693.104 660.250,693.104 C 660.250,693.104 662.436,693.052 662.436,693.052 C 665.336,692.983 679.620,694.996 680.225,695.558 C 680.806,696.098 678.443,696.058 676,695.488" stroke="#EB6E19" fill="#EB6E19" stroke-width="1" />
  </g><g id="wave 2"><path id="64" d="M 782.500,936.523 C 758.921,935.908 748.153,935.499 742,934.985 C 738.837,934.721 732.425,934.270 727.750,933.985 C 718.978,933.448 700.165,931.874 692.250,931.014 C 689.775,930.745 685.388,930.277 682.500,929.973 C 679.612,929.670 674.212,929.005 670.500,928.495 C 666.788,927.986 661.950,927.423 659.750,927.246 C 657.550,927.068 652.712,926.475 649,925.927 C 645.288,925.379 639.325,924.500 635.750,923.972 C 632.175,923.445 625.200,922.319 620.250,921.471 C 615.300,920.622 609.788,919.729 608,919.484 C 606.212,919.239 603.625,918.802 602.250,918.513 C 600.875,918.223 597.612,917.664 595,917.270 C 591.131,916.687 575,913.602 562.250,911.006 C 560.875,910.726 558.062,910.160 556,909.747 C 543.234,907.196 539.534,906.440 537.750,906.023 C 536.650,905.765 533.837,905.102 531.500,904.550 C 526.601,903.392 516.182,901.067 513.250,900.477 C 512.150,900.256 506.975,899.053 501.750,897.804 C 496.525,896.556 490.675,895.161 488.750,894.706 C 486.825,894.251 483.337,893.371 481,892.752 C 478.663,892.133 473.150,890.687 468.750,889.538 C 464.350,888.390 459.512,887.106 458,886.686 C 456.488,886.264 454.462,885.701 453.500,885.433 C 452.538,885.164 450.062,884.534 448,884.031 C 445.938,883.528 441.449,882.303 438.026,881.308 C 434.603,880.314 431.572,879.500 431.291,879.500 C 430.789,879.500 427.542,878.560 420,876.232 C 417.938,875.596 412.650,874.034 408.250,872.763 C 397.327,869.605 397.018,869.510 386.250,866.002 C 381.025,864.299 376.360,862.829 375.883,862.734 C 373.925,862.342 340.930,851.216 337,849.622 C 333.505,848.205 330.513,847.131 329,846.752 C 328.863,846.717 327.879,846.309 326.814,845.845 C 325.749,845.380 324.688,845 324.456,845 C 324.224,845 323.295,844.677 322.392,844.282 C 321.489,843.886 319.062,842.968 317,842.241 C 314.938,841.514 312.800,840.725 312.250,840.486 C 311.700,840.247 309.788,839.504 308,838.833 C 299.583,835.674 284.832,829.693 280.611,827.729 C 279.160,827.053 277.852,826.500 277.704,826.500 C 277.557,826.500 276.156,825.912 274.593,825.193 C 273.029,824.474 271.525,823.843 271.250,823.790 C 270.975,823.738 269.701,823.223 268.420,822.645 C 267.138,822.068 265.637,821.452 265.083,821.277 C 264.529,821.101 262.541,820.211 260.663,819.299 C 258.786,818.387 256.761,817.487 256.163,817.299 C 255.566,817.111 253.479,816.179 251.525,815.229 C 249.572,814.278 247.840,813.500 247.677,813.500 C 247.322,813.500 241.144,810.527 228.250,804.151 C 223.025,801.567 218.750,799.480 218.750,799.512 C 218.750,799.674 216.062,798.374 214.750,797.576 C 213.925,797.074 209.201,794.583 204.251,792.040 C 199.302,789.497 195.026,787.241 194.751,787.027 C 194.476,786.812 192.113,785.545 189.500,784.210 C 186.887,782.875 183.850,781.213 182.750,780.516 C 179.239,778.293 178.798,778.034 176.250,776.697 C 173.011,774.996 162.971,769.029 162,768.228 C 161.588,767.888 160.463,767.188 159.500,766.675 C 158.091,765.923 147.801,759.283 143.250,756.188 C 135.751,751.090 129.035,746.438 126,744.240 C 123.938,742.746 121.463,740.961 120.500,740.272 C 118.395,738.765 113.165,734.793 109.823,732.161 C 105.812,729.004 97.368,722.064 93.504,718.750 C 84.593,711.107 78.769,705.685 69.292,696.210 C 57.743,684.663 50.564,676.831 45.500,670.250 C 44.812,669.357 42.675,666.660 40.750,664.256 C 35.572,657.792 31.365,652.414 30.378,651 C 29.898,650.312 28.372,648.175 26.986,646.250 C 23.779,641.793 18.663,634.026 12.262,623.896 C 9.490,619.508 4.474,610.765 1.257,604.715 C 1.257,604.715 0,602.351 0,602.351 C 0,602.351 0,534.676 0,534.676 C 0,465.029 -0.018,465.714 1.775,467.464 C 2.067,467.749 5.227,467.358 10,466.447 C 25.587,463.473 44.120,459.837 59.500,456.736 C 68.162,454.989 78.175,452.981 81.750,452.274 C 85.325,451.567 89.938,450.553 92,450.020 C 94.062,449.487 97.888,448.682 100.500,448.231 C 106.100,447.264 121.228,444.003 135.250,440.740 C 140.750,439.461 148.963,437.555 153.500,436.507 C 175.356,431.453 206.877,422.559 213.750,419.507 C 214.300,419.262 216.887,418.247 219.500,417.250 C 222.113,416.253 224.700,415.233 225.250,414.983 C 228.173,413.656 245.019,406.500 245.223,406.500 C 245.440,406.500 250.107,404.401 255.305,401.964 C 256.435,401.433 257.510,401 257.694,401 C 257.878,401 259.653,400.236 261.639,399.303 C 267.868,396.374 277.649,392.149 280.164,391.300 C 281.491,390.852 283.192,390.168 283.942,389.780 C 286.112,388.658 304.328,382.687 309.783,381.310 C 315.118,379.963 326.885,377.778 331.705,377.238 C 333.837,377 334.464,376.772 333.955,376.422 C 333.469,376.087 333.872,376.020 335.250,376.207 C 339.284,376.755 352.500,376.966 352.500,376.481 C 352.500,375.702 354.367,375.932 354.681,376.750 C 354.866,377.231 355.646,377.502 356.860,377.507 C 358.913,377.515 366.737,378.905 373.500,380.462 C 379.049,381.740 388.363,385.315 395.250,388.811 C 398.275,390.346 405.087,394.500 410.387,398.041 C 421.045,405.161 423.582,406.262 429.250,406.231 C 434.729,406.200 438.265,403.861 440.557,398.750 C 441.493,396.663 441.675,395.384 441.663,391 C 441.649,386.238 441.481,385.303 439.865,380.932 C 438.885,378.281 437.728,375.423 437.292,374.581 C 436.381,372.820 436.243,370.500 437.048,370.500 C 437.841,370.500 442.841,371.935 445.750,372.998 C 450.514,374.738 462.854,380.963 463.464,381.935 C 463.988,382.769 471.167,387.500 471.909,387.500 C 473.037,387.500 479.113,392.584 485.925,399.228 C 500.069,413.022 512.868,428.792 526.726,449.500 C 530.314,454.863 533.331,459.437 533.430,459.664 C 533.529,459.892 532.913,461.467 532.060,463.164 C 529.071,469.116 527.370,475.631 527.122,482.080 C 527.122,482.080 526.898,487.909 526.898,487.909 C 526.898,487.909 528.202,488.764 528.202,488.764 C 529.268,489.462 529.870,489.527 531.480,489.119 C 532.564,488.844 533.575,488.742 533.726,488.892 C 533.876,489.043 534,491.362 534,494.045 C 534,498.563 534.096,499.036 535.294,500.462 C 537.096,502.603 539.319,502.575 541.462,500.384 C 541.462,500.384 543.042,498.767 543.042,498.767 C 543.042,498.767 544.308,500.384 544.308,500.384 C 546.771,503.532 550.010,501.978 554.072,495.695 C 555.209,493.938 556.303,492.500 556.502,492.500 C 556.702,492.500 557.255,494.103 557.731,496.062 C 558.207,498.022 560.062,503.815 561.854,508.938 C 566.484,522.174 566.105,521.186 569.348,528.500 C 571.515,533.389 578.417,547.179 580.561,550.904 C 581.902,553.236 583,555.236 583,555.348 C 583,555.461 583.977,557.060 585.170,558.902 C 587.047,561.797 588.862,564.727 590.750,567.908 C 591.025,568.371 592.038,569.875 593,571.250 C 593.962,572.625 594.975,574.114 595.250,574.559 C 596.095,575.927 597.657,578.165 599.044,580 C 601.850,583.709 607.797,591.625 608.750,592.919 C 610.260,594.970 613.504,599.001 615.485,601.289 C 616.456,602.411 618.600,604.966 620.250,606.969 C 630.913,619.909 635.381,624.761 651.765,641.194 C 665.904,655.376 676.763,665.672 684.258,672 C 686.701,674.062 690.315,677.212 692.290,679 C 694.265,680.788 697.391,683.487 699.236,685 C 705.830,690.403 706.569,691.131 706.022,691.678 C 704.845,695.144 702.399,690.924 701.500,694.889 C 701.500,695.378 701.142,696.288 700.705,696.913 C 700.038,697.864 699.615,697.997 698.080,697.737 C 686.622,695.795 652.826,691.455 641.388,690.457 C 635.836,689.972 634.365,689.680 633.686,688.928 C 633.223,688.418 632.673,688 632.465,688 C 632.255,688 628.988,684.962 625.204,681.250 C 621.420,677.538 617.995,674.500 617.594,674.500 C 617.192,674.500 612.656,670.225 607.513,665 C 602.370,659.775 597.842,655.500 597.451,655.500 C 597.060,655.500 596.470,655.066 596.138,654.535 C 595.807,654.004 594.918,653.498 594.163,653.410 C 593.249,653.303 592.366,652.636 591.520,651.413 C 590.111,649.375 583.633,644.269 576.753,639.772 C 569.144,634.799 564.312,633.016 558.413,633.006 C 555.540,633.001 554.861,633.182 553.524,634.307 C 552.446,635.213 552.120,635.792 552.457,636.198 C 553.048,637.814 551.450,637.814 551.226,638.020 C 550.637,638.509 550.475,639.543 550.549,642.341 C 550.602,644.365 550.523,646.144 550.370,646.296 C 549.846,646.820 546.202,644.111 543.598,641.263 C 537.997,635.134 525.155,616.761 517.379,603.750 C 513.948,598.009 504,580.067 504,579.619 C 504,579.476 502.178,576.021 499.951,571.940 C 489.815,553.364 481.281,529.965 477.019,509.058 C 474.303,495.736 473.808,490.543 473.778,475 C 473.762,467.163 473.904,460.065 474.092,459.226 C 475.528,452.832 467.534,459.115 462.075,468.671 C 455.387,480.377 452.811,492.274 452.800,511.500 C 452.789,529.087 455.115,542.396 461.099,559 C 467.243,576.047 478.445,596.060 491.745,613.750 C 498.329,622.508 500.717,625.949 500.418,626.249 C 500.289,626.378 498.398,625.787 496.216,624.935 C 487.601,621.573 477.277,618.201 472.714,617.259 C 468.090,616.303 461.074,616.293 457.532,617.235 C 454.300,618.095 452.491,619.732 452.205,622.054 C 452.090,622.987 451.628,625.156 451.179,626.875 C 450.448,629.669 450.438,630.314 451.087,632.972 C 451.487,634.606 451.630,635.831 451.407,635.692 C 450.589,635.187 451.037,636.808 452.563,639.877 C 453.968,642.702 457.156,646.475 464.111,653.543 C 469.712,659.235 480.312,666.596 491.750,672.740 C 495.384,674.691 501.179,678.240 502.377,679.247 C 502.858,679.651 503.700,680.316 504.250,680.725 C 505.503,681.657 505.051,681.669 501,680.814 C 497.185,680.009 475.450,669.591 466.500,664.279 C 449.038,653.914 433.600,641.631 416.625,624.597 C 398.779,606.689 382.255,583.933 371.420,562.341 C 353.457,526.544 346.868,497.492 348.519,461.358 C 349.202,446.425 350.781,436.614 354.514,424.138 C 355.438,421.051 356.054,418.387 355.884,418.217 C 355.067,417.400 352.752,419.134 347.240,424.690 C 330.613,441.456 319.417,467.245 316.531,495.428 C 315.774,502.818 315.892,521.001 316.753,529.465 C 319.067,552.202 326.019,574.907 337.978,598.774 C 349.409,621.590 360.906,637.828 381.849,660.740 C 388.161,667.645 393.563,672.618 403.250,680.440 C 431.152,702.971 445.058,711.798 480.750,729.636 C 503.338,740.925 513.122,745.365 532,752.892 C 557.067,762.888 568.968,767.608 575.750,770.245 C 588.747,775.301 595.812,779.008 621.500,794.255 C 650.341,811.375 679.457,825.295 709.500,836.328 C 714.312,838.096 720.163,840.295 722.500,841.216 C 730.120,844.219 731.117,844.573 742.500,848.326 C 755.792,852.707 780.531,860.156 797,864.735 C 821.390,871.515 870.460,883.635 892.067,888.215 C 896.567,889.168 902.950,890.534 906.250,891.250 C 934.055,897.282 973.064,904.306 1000.500,908.221 C 1035.312,913.189 1082.891,916.970 1101.500,916.248 C 1106.588,916.051 1111.501,915.915 1112.418,915.947 C 1113.335,915.980 1114.348,915.839 1114.668,915.635 C 1114.988,915.432 1115.362,915.251 1115.500,915.234 C 1123.216,914.268 1128.114,913.220 1128.528,912.447 C 1128.789,911.960 1128.811,911.442 1128.576,911.298 C 1128.342,911.153 1125.473,910.799 1122.200,910.512 C 1118.928,910.225 1115.125,909.865 1113.750,909.712 C 1108.068,909.077 1106.661,908.952 1104.875,908.918 C 1102.237,907.554 1100.964,907.554 1102.060,907.155 C 1105.963,908.128 1132.436,910.422 1146.855,911.038 C 1147.800,911.078 1141.322,912.585 1136.250,913.505 C 1129.641,914.702 1105.405,918.367 1090,920.498 C 1086.013,921.049 1081.287,921.716 1079.500,921.980 C 1077.713,922.243 1075.125,922.577 1073.750,922.723 C 1072.375,922.869 1066.412,923.543 1060.500,924.223 C 1039.768,926.607 1035.193,927.077 1028.250,927.529 C 1020.516,928.034 1013.346,928.648 1005.750,929.456 C 1003,929.748 997.278,930.215 993.034,930.494 C 988.789,930.772 980.802,931.329 975.284,931.732 C 969.765,932.135 963.225,932.583 960.750,932.729 C 958.275,932.875 954.337,933.121 952,933.277 C 943.451,933.847 922.543,934.747 895,935.730 C 870.591,936.601 803.601,937.073 782.500,936.523M 691.500,874.558 C 691.500,874.316 691.106,874.005 690.625,873.868 C 690.144,873.731 685.925,872.564 681.250,871.274 C 668.930,867.875 656.410,863.692 638.250,856.908 C 623.653,851.455 599.444,841.785 588.957,837.218 C 583.001,834.625 550.473,819.216 533,810.711 C 524.888,806.762 516.225,802.871 513.750,802.064 C 508.055,800.208 505.866,799.337 494.500,794.399 C 489.413,792.188 481.875,788.919 477.750,787.133 C 473.625,785.347 469.059,783.347 467.603,782.689 C 466.147,782.032 460.860,779.790 455.853,777.708 C 441.841,771.881 426.537,765.368 406,756.491 C 395.688,752.034 383.875,746.930 379.750,745.149 C 375.625,743.368 371.531,741.596 370.651,741.210 C 368.455,740.247 368.212,741.034 370.144,742.847 C 378.457,750.645 403.217,768.688 419,778.451 C 424.166,781.645 440.240,791.308 446.500,794.981 C 449.938,796.998 453.772,799.284 455.021,800.059 C 458.208,802.040 476.697,811.185 486.250,815.506 C 505.562,824.241 546.782,840.987 562.750,846.583 C 584.991,854.379 623.029,864.811 641.500,868.179 C 651.711,870.042 680.168,873.939 690.875,874.942 C 691.219,874.973 691.500,874.802 691.500,874.558M 511,869.526 C 511,868.425 482.138,850.490 465.750,841.407 C 447.960,831.548 441.757,828.567 417.250,818.097 C 273.159,756.541 219.414,728.944 176.500,694.481 C 153.686,676.159 132.137,654.023 115.270,631.583 C 111.716,626.855 109.715,624.585 109.388,624.912 C 108.620,625.679 109.841,633.486 111.585,638.964 C 115.218,650.371 125.345,666.454 138.192,681.219 C 144.409,688.362 159.046,702.956 167.250,710.190 C 191.826,731.859 220.143,750.750 252.577,767.117 C 280.999,781.460 301.743,790.761 329.750,801.721 C 338,804.950 347.900,808.827 351.750,810.337 C 355.600,811.846 362.125,814.404 366.250,816.019 C 370.375,817.635 381.400,821.791 390.750,825.256 C 400.100,828.721 414.500,834.215 422.750,837.465 C 439.445,844.042 443.145,845.433 461.500,852.028 C 468.512,854.547 479.087,858.481 485,860.768 C 509.860,870.385 511,870.769 511,869.526M 361.745,687.614 C 360.366,686.313 353.841,680.500 347.245,674.696 C 333.119,662.266 321.298,650.685 313.873,642 C 279.483,601.773 262.021,562.679 255.916,512.250 C 255.479,508.640 255.260,501.079 255.279,490.250 C 255.303,476.586 255.492,472.241 256.378,464.971 C 257.982,451.812 260.096,442.429 263.558,433.092 C 264.406,430.805 264.966,428.800 264.803,428.637 C 263.709,427.542 256.451,433.712 251.748,439.735 C 239.936,454.861 233.587,474.302 232.228,499.500 C 230.867,524.758 239.713,559.748 254.602,588 C 267.591,612.648 281.200,630.037 305.117,652.553 C 318.332,664.994 326.822,671.448 339.685,678.835 C 348.522,683.911 361.414,689.937 363.500,689.967 C 363.913,689.973 363.123,688.914 361.745,687.614M 250,677.310 C 250,676.931 246.681,673.730 242.625,670.197 C 218.283,648.997 207.558,638.027 196.238,622.750 C 177.842,597.925 166.157,573.512 158.786,544.500 C 153.165,522.382 151.078,506.911 150.256,481.250 C 149.900,470.139 149.727,468.882 148.586,469.103 C 146.540,469.497 142.896,479.827 140.950,490.750 C 138.810,502.757 139.099,526.612 141.557,541 C 146.028,567.167 154.418,589.295 167.828,610.290 C 186.012,638.759 205.615,657.539 231.750,671.529 C 241.272,676.625 250,679.390 250,677.310M 429,574.745 C 429,574.605 427.561,570.836 425.802,566.370 C 419.680,550.824 416.226,538.037 413.546,521 C 410.274,500.192 409.829,481.576 412.107,460.890 C 412.432,457.942 412.551,455.384 412.372,455.205 C 411.579,454.412 409.363,455.700 407.760,457.885 C 397.147,472.353 394.901,503.538 402.511,530.750 C 405.873,542.771 411.561,555.973 416.720,563.726 C 419.766,568.304 426.466,575 428.002,575 C 428.550,575 429,574.885 429,574.745" stroke="#33C2C4" fill="#33C2C4" stroke-width="1" />
  <path id="69" d="M 1076.250,915.767 C 1052.646,914.337 1021.895,911.273 1000.500,908.221 C 973.074,904.308 934.059,897.283 906.250,891.250 C 902.950,890.534 896.567,889.168 892.067,888.215 C 870.460,883.635 821.390,871.515 797,864.735 C 780.531,860.156 755.792,852.707 742.500,848.326 C 731.117,844.573 730.120,844.219 722.500,841.216 C 720.163,840.295 714.312,838.096 709.500,836.328 C 679.457,825.295 650.341,811.375 621.500,794.255 C 595.812,779.008 588.747,775.301 575.750,770.245 C 568.968,767.608 557.067,762.888 532,752.892 C 513.122,745.365 503.338,740.925 480.750,729.636 C 445.058,711.798 431.152,702.971 403.250,680.440 C 393.563,672.618 388.161,667.645 381.849,660.740 C 360.906,637.828 349.409,621.590 337.978,598.774 C 326.019,574.907 319.067,552.202 316.753,529.465 C 315.892,521.001 315.774,502.818 316.531,495.428 C 319.417,467.245 330.613,441.456 347.240,424.690 C 352.752,419.134 355.067,417.400 355.884,418.217 C 356.054,418.387 355.438,421.051 354.514,424.138 C 350.781,436.614 349.202,446.425 348.519,461.358 C 346.868,497.492 353.457,526.544 371.420,562.341 C 382.255,583.933 398.779,606.689 416.625,624.597 C 433.600,641.631 449.038,653.914 466.500,664.279 C 475.450,669.591 497.185,680.009 501,680.814 C 505.051,681.669 505.503,681.657 504.250,680.725 C 503.700,680.316 502.858,679.651 502.377,679.247 C 501.179,678.240 495.384,674.691 491.750,672.740 C 480.312,666.596 469.712,659.235 464.111,653.543 C 457.156,646.475 453.968,642.702 452.563,639.877 C 450.974,636.681 450.591,635.188 452.002,637.251 C 452.286,637.427 453.058,638.634 453.716,639.933 C 454.375,641.232 457.014,644.519 459.582,647.236 C 470.082,658.351 483.273,667.124 513.750,683.259 C 537.726,695.952 558.529,707.611 570.903,715.288 C 577.823,719.582 606.353,738.442 609.750,740.968 C 611.125,741.990 616.638,745.942 622,749.749 C 627.362,753.556 641.425,763.905 653.250,772.748 C 689.613,799.941 700.857,807.547 724.193,820.742 C 746.307,833.245 778.990,846.888 803.334,853.776 C 809.027,855.387 820.351,856.905 822.876,856.397 C 823.386,856.294 820.317,854.374 815.500,851.780 C 807.216,847.322 794.051,839.159 791.250,836.744 C 789.793,835.487 789.785,835.460 791,835.787 C 791.688,835.972 793.104,836.530 794.146,837.027 C 795.189,837.524 797.664,838.409 799.646,838.995 C 801.629,839.582 804.487,840.479 806,840.990 C 808.919,841.976 819.115,845.148 827,847.521 C 829.612,848.308 834.337,849.734 837.500,850.690 C 840.663,851.646 845.500,853.033 848.250,853.770 C 851,854.509 856.062,855.884 859.500,856.827 C 862.938,857.769 869.125,859.417 873.250,860.487 C 877.375,861.558 883,863.030 885.750,863.757 C 888.500,864.484 892.550,865.483 894.750,865.977 C 898.261,866.766 923.850,873.128 929.250,874.554 C 931.173,875.062 934.029,875.739 943.750,877.989 C 953.252,880.188 959.327,881.524 971,883.982 C 974.712,884.764 980.788,886.072 984.500,886.889 C 988.212,887.707 993.388,888.752 996,889.212 C 998.612,889.673 1002.775,890.489 1005.250,891.025 C 1012.518,892.601 1025.024,894.945 1042.500,898.008 C 1045.662,898.562 1049.487,899.239 1051,899.513 C 1058.489,900.866 1085.001,905.022 1088,905.312 C 1090.861,905.587 1091,905.637 1091,906.363 C 1087.133,908.322 1094.476,905.580 1096.625,907.010 C 1099.245,906.977 1099.999,907.133 1100.007,907.708 C 1099.775,907.226 1107.792,909.594 1103.500,910.420 C 1103.500,910.651 1104.405,910.814 1105.511,910.783 C 1112.140,913.346 1111.681,913.346 1114.508,914.755 C 1115.474,915.351 1114.423,916.019 1112.590,915.973 C 1111.578,915.948 1105.463,916.042 1099,916.181 C 1091.884,916.334 1082.911,916.170 1076.250,915.767M 667.917,787.035 C 667.649,786.290 660.496,779.933 657.496,777.775 C 655.986,776.688 652.500,773.969 649.750,771.731 C 647,769.494 642.275,765.911 639.250,763.769 C 636.225,761.628 632.625,758.995 631.250,757.919 C 629.875,756.843 626.313,754.253 623.334,752.164 C 620.355,750.075 617.205,747.649 616.334,746.774 C 615.463,745.899 613.778,744.687 612.590,744.081 C 610.829,743.183 606.904,740.507 604.250,738.396 C 603.975,738.177 600.702,735.995 596.976,733.548 C 593.251,731.100 589.904,728.737 589.540,728.298 C 589.176,727.860 588.624,727.500 588.314,727.499 C 587.797,727.498 586.550,726.713 578.511,721.333 C 577.005,720.325 575.583,719.500 575.351,719.500 C 575.119,719.500 572.751,718.068 570.090,716.319 C 565.933,713.587 560.381,711 558.675,711 C 557.176,711 558.656,713.035 562.583,716.375 C 565.013,718.442 567,720.327 567,720.566 C 567,721.256 565.629,721.096 557.703,719.482 C 553.604,718.647 545.413,717.088 539.500,716.018 C 533.587,714.947 526.902,713.672 524.644,713.183 C 522.385,712.695 520.379,712.455 520.184,712.649 C 517.825,715.008 541.398,731.549 567.500,745.849 C 584.960,755.414 598.019,761.144 641.500,778.322 C 647.413,780.658 653.375,783.040 654.750,783.615 C 661.390,786.394 668.333,788.198 667.917,787.035" stroke="#16ACB4" fill="#16ACB4" stroke-width="1" />
  <path id="2" d="M 493.029,584.224 C 489.805,582.723 483.594,576.653 480.740,572.215 C 478.719,569.074 477,564.364 477,561.973 C 477,559.959 478.389,559.302 481.127,560.019 C 485.173,561.078 489.959,564.825 495.042,570.912 C 500.604,577.572 502.078,581.495 500.008,584.126 C 498.621,585.889 496.666,585.917 493.029,584.224" stroke="#FFF2D7" fill="#FFF2D7" stroke-width="1" />
  <path id="69" d="M 680.250,873.711 C 647.028,869.817 633.614,867.230 602.359,858.684 C 580.131,852.606 566.286,848.141 547.500,840.990 C 536.871,836.944 496.627,820.200 486.250,815.506 C 476.697,811.185 458.208,802.040 455.021,800.059 C 453.772,799.284 449.938,796.998 446.500,794.981 C 440.240,791.308 424.166,781.645 419,778.451 C 403.217,768.688 378.457,750.645 370.144,742.847 C 368.212,741.034 368.455,740.247 370.651,741.210 C 371.531,741.596 375.625,743.368 379.750,745.149 C 383.875,746.930 395.688,752.034 406,756.491 C 426.537,765.368 441.841,771.881 455.853,777.708 C 460.860,779.790 466.147,782.032 467.603,782.689 C 469.059,783.347 473.625,785.347 477.750,787.133 C 481.875,788.919 489.413,792.188 494.500,794.399 C 505.866,799.337 508.055,800.208 513.750,802.064 C 516.225,802.871 524.888,806.762 533,810.711 C 550.473,819.216 583.001,834.625 588.957,837.218 C 599.444,841.785 623.653,851.455 638.250,856.908 C 656.410,863.692 668.930,867.875 681.250,871.274 C 685.925,872.564 690.144,873.731 690.625,873.868 C 691.621,874.151 691.826,875.030 690.875,874.942 C 690.531,874.909 685.750,874.356 680.250,873.711" stroke="#16ACB4" fill="#16ACB4" stroke-width="1" />
  <path id="69" d="M 241.500,676.089 C 221.781,668.268 199.132,651.116 183.940,632.500 C 160.369,603.616 147.514,575.864 141.557,541 C 139.099,526.612 138.810,502.757 140.950,490.750 C 142.896,479.827 146.540,469.497 148.586,469.103 C 149.727,468.882 149.900,470.139 150.256,481.250 C 151.078,506.911 153.165,522.382 158.786,544.500 C 166.157,573.512 177.842,597.925 196.238,622.750 C 207.558,638.027 218.283,648.997 242.625,670.197 C 246.681,673.730 250,676.931 250,677.310 C 250,678.558 246.435,678.047 241.500,676.089" stroke="#16ACB4" fill="#16ACB4" stroke-width="1" />
  <path id="69" d="M 503,867.662 C 499.012,866.157 490.913,863.054 485,860.768 C 479.087,858.481 468.512,854.547 461.500,852.028 C 443.145,845.433 439.445,844.042 422.750,837.465 C 414.500,834.215 400.100,828.721 390.750,825.256 C 381.400,821.791 370.375,817.635 366.250,816.019 C 362.125,814.404 355.600,811.846 351.750,810.337 C 347.900,808.827 338,804.950 329.750,801.721 C 289.654,786.030 250.829,767.539 223.500,751.115 C 209.379,742.629 190.718,729.652 178.500,719.821 C 166.626,710.265 147.674,692.116 138.192,681.219 C 125.345,666.454 115.218,650.371 111.585,638.964 C 109.841,633.486 108.620,625.679 109.388,624.912 C 109.715,624.585 111.716,626.855 115.270,631.583 C 132.137,654.023 153.686,676.159 176.500,694.481 C 219.414,728.944 273.159,756.541 417.250,818.097 C 441.757,828.567 447.960,831.548 465.750,841.407 C 482.138,850.490 511,868.425 511,869.526 C 511,870.515 509.851,870.247 503,867.662" stroke="#16ACB4" fill="#16ACB4" stroke-width="1" />
  <path id="69" d="M 623.793,681.110 C 619.141,676.511 615.783,673.144 616.332,673.625 C 616.880,674.106 617.553,674.500 617.827,674.500 C 618.100,674.500 621.420,677.538 625.204,681.250 C 628.988,684.962 632.263,688 633.186,689.485 C 632.658,689.476 628.561,685.822 623.793,681.110" stroke="#16ACB4" fill="#16ACB4" stroke-width="1" />
  <path id="69" d="M 587.500,648.938 C 576.953,640.722 568.461,635.748 562.386,634.226 C 558.424,633.234 556.143,633.524 554.052,635.283 C 553.240,635.966 552.445,636.316 552.286,636.058 C 552.127,635.802 552.690,635.008 553.537,634.295 C 554.860,633.183 555.548,633.001 558.413,633.006 C 564.318,633.016 569.116,634.791 576.773,639.794 C 585.391,645.427 592.269,651.054 591.387,651.751 C 591.312,651.811 589.562,650.544 587.500,648.938" stroke="#16ACB4" fill="#16ACB4" stroke-width="1" />
  <path id="69" d="M 557.232,670.072 C 555.572,669.286 551.747,666.560 548.732,664.013 C 525.778,644.620 519.104,639.604 507,632.645 C 499.642,628.414 495.346,626.315 488.332,623.522 C 477.961,619.392 472.221,618 465.566,618 C 460.062,618 456.608,618.993 454.195,621.269 C 453.178,622.229 452.257,622.924 452.149,622.816 C 451.693,622.360 452.670,620.015 453.731,619.019 C 456.310,616.596 465.416,615.751 472.714,617.259 C 477.277,618.201 487.601,621.573 496.216,624.935 C 498.398,625.787 500.289,626.378 500.418,626.249 C 500.717,625.949 498.329,622.508 491.745,613.750 C 478.445,596.060 467.243,576.047 461.099,559 C 455.115,542.396 452.789,529.087 452.800,511.500 C 452.811,492.274 455.387,480.377 462.075,468.671 C 466.289,461.293 472.724,454.972 473.979,456.976 C 474.230,457.376 474.280,458.389 474.092,459.226 C 473.904,460.065 473.762,467.163 473.778,475 C 473.808,490.543 474.303,495.736 477.019,509.058 C 481.281,529.965 489.815,553.364 499.951,571.940 C 502.178,576.021 504,579.476 504,579.619 C 504,580.067 513.948,598.009 517.379,603.750 C 525.155,616.761 537.997,635.134 543.598,641.263 C 546.202,644.111 549.846,646.820 550.370,646.296 C 550.523,646.144 550.602,644.365 550.549,642.341 C 550.479,639.691 550.649,638.499 551.157,638.078 C 551.750,637.585 551.902,638.179 552.124,641.871 C 552.425,646.880 554.480,653.562 556.284,655.400 C 556.905,656.033 557.859,657.495 558.403,658.650 C 558.947,659.805 560.092,661.538 560.947,662.500 C 561.802,663.462 562.734,665.092 563.019,666.122 C 563.304,667.153 563.837,668.275 564.203,668.617 C 564.698,669.079 564.736,669.532 564.355,670.370 C 563.628,671.966 561.004,671.856 557.232,670.072M 500.008,584.126 C 502.078,581.495 500.604,577.572 495.042,570.912 C 489.959,564.825 485.173,561.078 481.127,560.019 C 477.022,558.943 476.142,560.674 477.916,566.331 C 479.178,570.350 481.949,574.472 486.478,579.069 C 492.409,585.088 497.697,587.065 500.008,584.126" stroke="#16ACB4" fill="#16ACB4" stroke-width="1" />
  <path id="69" d="M 423.223,571.409 C 418.527,566.948 414.928,561.591 410.817,552.942 C 401.606,533.566 397.439,514.038 398.144,493.546 C 398.682,477.921 401.947,465.810 407.760,457.885 C 409.363,455.700 411.579,454.412 412.372,455.205 C 412.551,455.384 412.432,457.942 412.107,460.890 C 409.829,481.576 410.274,500.192 413.546,521 C 416.226,538.037 419.680,550.824 425.802,566.370 C 427.561,570.836 429,574.605 429,574.745 C 429,574.885 428.550,575 428.002,575 C 427.447,575 425.322,573.403 423.223,571.409" stroke="#16ACB4" fill="#16ACB4" stroke-width="1" />
  <path id="69" d="M 605.639,664.009 C 603.929,662.383 600.476,659.354 597.967,657.277 C 594.699,654.572 593.701,653.500 597.345,655.500 C 598.062,655.500 606.597,663.530 608.054,665.576 C 608.612,666.359 608.996,666.992 608.909,666.982 C 608.822,666.973 607.350,665.635 605.639,664.009" stroke="#16ACB4" fill="#16ACB4" stroke-width="1" />
  <path id="69" d="M 358.710,688.302 C 345.522,682.899 329.589,673.457 318.402,664.413 C 308.421,656.346 290.816,639.009 281.127,627.708 C 264.704,608.551 250.246,583.112 242.254,559.312 C 230.523,524.375 229.083,495.067 237.721,467.043 C 240.998,456.415 245.370,447.902 251.748,439.735 C 256.451,433.712 263.709,427.542 264.803,428.637 C 264.966,428.800 264.406,430.805 263.558,433.092 C 260.096,442.429 257.982,451.812 256.378,464.971 C 255.492,472.241 255.303,476.586 255.279,490.250 C 255.260,501.079 255.479,508.640 255.916,512.250 C 260.829,552.836 273.308,586.362 295.279,618 C 309.702,638.769 323.401,653.715 347.245,674.696 C 362.039,687.714 364.452,689.981 363.500,689.967 C 363.087,689.962 360.932,689.212 358.710,688.302" stroke="#16ACB4" fill="#16ACB4" stroke-width="1" />
  <path id="64" d="M 661.500,786.062 C 659.163,785.292 656.125,784.191 654.750,783.615 C 653.375,783.040 647.413,780.658 641.500,778.322 C 611.883,766.621 589.295,757.162 580.780,752.891 C 551.533,738.224 517.327,715.506 520.184,712.649 C 520.379,712.455 522.385,712.695 524.644,713.183 C 526.902,713.672 533.587,714.947 539.500,716.018 C 545.413,717.088 553.604,718.647 557.703,719.482 C 565.629,721.096 567,721.256 567,720.566 C 567,720.327 565.013,718.442 562.583,716.375 C 558.656,713.035 557.176,711 558.675,711 C 560.381,711 565.933,713.587 570.090,716.319 C 572.751,718.068 575.119,719.500 575.351,719.500 C 575.583,719.500 577.005,720.325 578.511,721.333 C 586.550,726.713 587.797,727.498 588.314,727.499 C 588.624,727.500 589.176,727.860 589.540,728.298 C 589.904,728.737 593.251,731.100 596.976,733.548 C 600.702,735.995 603.975,738.177 604.250,738.396 C 606.904,740.507 610.829,743.183 612.590,744.081 C 613.778,744.687 615.463,745.899 616.334,746.774 C 617.205,747.649 620.355,750.075 623.334,752.164 C 626.313,754.253 629.875,756.843 631.250,757.919 C 632.625,758.995 636.225,761.628 639.250,763.769 C 642.275,765.911 647,769.494 649.750,771.731 C 652.500,773.969 655.986,776.688 657.496,777.775 C 660.496,779.933 667.649,786.290 667.917,787.035 C 668.211,787.855 665.864,787.499 661.500,786.062" stroke="#33C2C4" fill="#33C2C4" stroke-width="1" />
  </g><g id="wave 1"><path id="69" d="M 1.817,467.651 C 1.461,467.295 1.659,467.253 34.750,460.764 C 97.166,448.526 130.107,441.420 167.129,432.207 C 184.036,428 193.744,425.233 205.250,421.339 C 218.583,416.827 227.136,413.325 258,399.737 C 287.719,386.653 301.087,381.959 318.452,378.510 C 322.623,377.681 327.995,376.897 330.392,376.769 C 335.392,376.500 334.485,376.731 323.500,378.526 C 319.788,379.132 314.150,380.260 310.973,381.033 C 305.065,382.469 286.399,388.509 283.942,389.780 C 283.192,390.168 281.491,390.852 280.164,391.300 C 277.649,392.149 267.868,396.374 261.639,399.303 C 259.653,400.236 257.878,401 257.694,401 C 257.510,401 256.435,401.433 255.305,401.964 C 250.107,404.401 245.440,406.500 245.223,406.500 C 245.019,406.500 228.173,413.656 225.250,414.983 C 224.700,415.233 222.113,416.253 219.500,417.250 C 216.887,418.247 214.300,419.262 213.750,419.507 C 206.877,422.559 175.356,431.453 153.500,436.507 C 148.963,437.555 140.750,439.461 135.250,440.740 C 121.228,444.003 106.100,447.264 100.500,448.231 C 97.888,448.682 94.062,449.487 92,450.020 C 89.938,450.553 85.325,451.567 81.750,452.274 C 78.175,452.981 68.162,454.989 59.500,456.736 C 43.337,459.994 22.953,463.986 11,466.233 C 7.287,466.930 3.777,467.610 3.199,467.741 C 2.621,467.873 2,467.833 1.817,467.651" stroke="#16ACB4" fill="#16ACB4" stroke-width="1" />
  <path id="69" d="M 426.250,406.277 C 425.975,406.165 424.462,405.714 422.887,405.276 C 420.822,404.701 417.341,402.687 410.387,398.041 C 392.932,386.380 382.426,381.954 364,378.500 C 361.113,377.958 357.920,377.512 356.904,377.507 C 355.889,377.503 354.920,377.275 354.750,377 C 354.238,376.171 357.844,376.419 365.738,377.757 C 374.412,379.226 377.313,379.940 382.750,381.946 C 392.654,385.600 399.146,389.016 409.223,395.877 C 419.318,402.748 422.868,404.524 427.209,404.873 C 436.197,405.594 441.596,399.711 440.837,390.020 C 440.473,385.368 439.378,382.137 435.790,375.122 C 434.255,372.122 433,369.292 433,368.834 C 433,365.625 450.555,372.546 462.844,380.600 C 469.115,384.709 472.769,387.500 471.877,387.500 C 471.159,387.500 463.976,382.748 463.464,381.935 C 462.854,380.963 450.514,374.738 445.750,372.998 C 442.841,371.935 437.841,370.500 437.048,370.500 C 436.243,370.500 436.381,372.820 437.292,374.581 C 437.728,375.423 438.885,378.281 439.865,380.932 C 441.481,385.303 441.649,386.238 441.663,391 C 441.675,395.384 441.493,396.663 440.557,398.750 C 438.411,403.536 434.875,406.012 429.764,406.308 C 428.106,406.404 426.525,406.390 426.250,406.277" stroke="#16ACB4" fill="#16ACB4" stroke-width="1" />
  <path id="2" d="M 0,464.091 C 0,464.091 0,461.183 0,461.183 C 0,461.183 7.625,459.036 7.625,459.036 C 21.162,455.224 57.919,443.844 63.500,441.738 C 64.463,441.375 67.388,440.397 70,439.565 C 74.487,438.135 88.377,433.342 90,432.663 C 90.412,432.490 90.975,432.290 91.250,432.219 C 92.852,431.801 106.878,426.533 109.750,425.271 C 110.575,424.908 111.812,424.447 112.500,424.248 C 113.188,424.048 116.606,422.673 120.095,421.192 C 123.585,419.712 126.605,418.500 126.805,418.500 C 127.007,418.500 127.526,418.209 127.960,417.853 C 128.394,417.497 129.988,416.781 131.500,416.264 C 133.012,415.746 136.162,414.435 138.500,413.349 C 148.399,408.755 149.839,408.091 151.576,407.315 C 152.579,406.867 153.621,406.500 153.889,406.500 C 154.158,406.500 154.639,406.185 154.959,405.799 C 155.280,405.413 156.126,404.951 156.842,404.772 C 158.714,404.302 197.913,384.729 201.500,382.474 C 202.711,381.712 208.320,378.598 214.500,375.254 C 224.372,369.913 226.099,368.962 231.642,365.813 C 234.607,364.128 238.458,361.962 240.200,361 C 241.941,360.038 243.678,359.014 244.058,358.727 C 244.439,358.440 245.988,357.562 247.500,356.779 C 249.012,355.995 250.588,355.095 251,354.778 C 251.412,354.461 252.988,353.561 254.500,352.778 C 256.012,351.995 257.587,351.084 258,350.753 C 258.413,350.423 259.087,350.012 259.500,349.842 C 259.913,349.671 261.375,348.866 262.750,348.051 C 264.125,347.237 266.567,345.863 268.176,344.998 C 269.786,344.133 271.923,342.962 272.926,342.394 C 280.383,338.177 301.733,327.500 302.709,327.500 C 302.854,327.500 304.160,326.947 305.611,326.271 C 310.416,324.032 317.140,321.448 326,318.437 C 330.812,316.801 335.200,315.260 335.750,315.010 C 339.757,313.197 359.491,308.442 367,307.482 C 368.788,307.253 371.600,306.827 373.250,306.536 C 385.606,304.349 412.048,303.709 425.577,305.270 C 437.347,306.628 451.463,309.443 457.918,311.721 C 459.063,312.125 460,312.325 460,312.166 C 460,312.007 460.281,312.101 460.625,312.373 C 460.969,312.647 462.150,313.152 463.250,313.498 C 470.287,315.707 488.151,323.932 493.566,327.457 C 494.767,328.239 496.762,329.520 498,330.304 C 507.461,336.298 511.620,339.432 522.581,348.822 C 527.212,352.790 539.400,365.209 544.644,371.305 C 547.499,374.623 551.062,379.074 556.435,386.034 C 559.030,389.397 570.335,406.951 572.549,411.057 C 573.264,412.382 574.154,413.833 574.526,414.281 C 575.103,414.977 575.077,415.167 574.351,415.574 C 572.122,416.821 565.981,421.813 559.987,427.250 C 550.343,435.999 541.243,446.817 536.125,455.616 C 534.888,457.743 533.666,459.353 533.409,459.194 C 533.153,459.036 530.077,454.596 526.574,449.328 C 505.301,417.340 484.260,394.631 462.967,380.680 C 450.558,372.550 433,365.608 433,368.834 C 433,369.292 434.255,372.122 435.790,375.122 C 439.378,382.137 440.473,385.368 440.837,390.020 C 441.596,399.711 436.197,405.594 427.209,404.873 C 422.868,404.524 419.318,402.748 409.223,395.877 C 399.146,389.016 392.654,385.600 382.750,381.946 C 373.032,378.361 361.730,376.490 347.635,376.135 C 335.599,375.832 329.618,376.325 318.310,378.551 C 301.205,381.918 287.692,386.666 258,399.737 C 227.136,413.325 218.583,416.827 205.250,421.339 C 175.899,431.271 123.094,443.478 34.750,460.752 C 22.650,463.118 10.672,465.492 8.133,466.027 C 5.595,466.562 2.726,467 1.758,467 C 1.758,467 0,467 0,467 C 0,467 0,464.091 0,464.091" stroke="#FFF2D7" fill="#FFF2D7" stroke-width="1" />
</g><g id="surfer"><path id="22" d="M 768.750,726.537 C 759.168,724.848 747.596,720.597 741.280,716.444 C 739.476,715.259 738,713.988 738,713.622 C 738,713.256 739.094,710.211 740.432,706.854 C 741.769,703.496 744.258,696.587 745.962,691.500 C 749.603,680.635 756.605,661.555 759.256,655.274 C 759.610,654.436 760.298,652.737 760.787,651.500 C 761.275,650.263 762.198,648.062 762.837,646.610 C 763.477,645.158 764,643.794 764,643.578 C 764,643.363 764.562,642.021 765.250,640.596 C 765.938,639.171 766.500,637.871 766.500,637.708 C 766.500,637.545 767.143,636.024 767.928,634.327 C 768.713,632.630 769.533,630.681 769.749,629.995 C 770.303,628.237 780.226,608.812 782.261,605.500 C 783.191,603.987 784.530,601.737 785.237,600.500 C 789.778,592.552 796.979,582.433 802.125,576.768 C 803.432,575.330 804.500,574.011 804.500,573.837 C 804.500,573.505 798.337,570.503 797.646,570.496 C 797.200,570.493 772.670,558.205 765.750,554.519 C 763.275,553.200 758.332,550.604 754.766,548.749 C 751.201,546.894 747.437,544.841 746.402,544.188 C 745.366,543.534 744.435,543 744.332,543 C 744.228,543 742.188,541.875 739.799,540.500 C 737.409,539.125 735.343,538 735.207,538 C 735.071,538 734.350,537.571 733.605,537.047 C 732.860,536.522 729.212,534.234 725.500,531.961 C 721.788,529.688 718.285,527.416 717.718,526.913 C 717.150,526.411 716.534,526 716.348,526 C 716.163,526 714.715,525.034 713.130,523.854 C 711.546,522.673 709.770,521.379 709.183,520.979 C 706.500,519.145 699.287,513.386 694.602,509.336 C 687.959,503.592 680.028,494.207 676.572,488 C 671.284,478.503 669.071,471.228 668.032,459.930 C 667.294,451.917 668.169,444.080 671.008,433.250 C 672.903,426.022 677.936,414.935 682.638,407.635 C 683.387,406.471 684,405.414 684,405.284 C 684,404.996 692.229,392.779 693.695,390.892 C 694.275,390.144 695.425,388.616 696.250,387.497 C 697.075,386.377 698.538,384.485 699.500,383.293 C 704,377.719 708.385,372.253 709.750,370.519 C 710.575,369.471 713.088,366.620 715.334,364.182 C 724.358,354.389 727,351.332 727,350.681 C 727,349.827 726.783,349.831 722.915,350.762 C 713.076,353.131 706.410,355.991 700.434,360.408 C 699.435,361.146 697.279,362.683 695.643,363.822 C 691.844,366.467 681.930,373.858 679,376.229 C 677.763,377.231 675.737,378.815 674.500,379.750 C 671.570,381.964 667.992,384.808 665.357,387.018 C 664.198,387.990 662.462,389.388 661.500,390.125 C 660.538,390.861 658.062,392.822 656,394.482 C 653.938,396.142 651.045,398.457 649.572,399.625 C 648.099,400.794 645.940,402.538 644.774,403.500 C 643.608,404.462 641.246,406.375 639.524,407.750 C 632.919,413.027 631.933,413.815 629.207,416 C 627.663,417.238 625.083,419.375 623.474,420.750 C 621.865,422.125 619.270,424.262 617.707,425.500 C 616.145,426.738 613.592,428.922 612.034,430.355 C 612.034,430.355 609.202,432.960 609.202,432.960 C 609.202,432.960 605.726,429.393 605.726,429.393 C 597.181,420.623 584.900,413.975 578.390,414.596 C 577.351,414.695 576.500,414.690 576.500,414.586 C 576.500,414.481 577.056,413.687 577.735,412.822 C 578.413,411.957 579.707,410.288 580.610,409.112 C 581.512,407.936 582.869,406.219 583.625,405.296 C 584.381,404.373 585,403.452 585,403.250 C 585,403.048 585.619,402.148 586.375,401.252 C 587.131,400.355 588.763,398.236 590,396.545 C 593.288,392.049 597.439,386.675 599.733,383.945 C 600.567,382.952 602.375,380.706 603.750,378.954 C 605.125,377.203 607.263,374.606 608.500,373.185 C 617.505,362.840 619.991,360.058 625.821,353.801 C 632.228,346.926 650.112,329.442 652.870,327.359 C 653.629,326.786 655.641,325.065 657.341,323.534 C 659.041,322.002 661.580,319.850 662.983,318.750 C 664.386,317.650 666.484,315.954 667.643,314.982 C 669.635,313.310 670.672,312.491 675.663,308.639 C 676.811,307.753 679.212,305.995 681,304.733 C 682.788,303.469 685.263,301.666 686.500,300.726 C 689.183,298.686 694.376,295.185 697.500,293.308 C 700.953,291.235 701.472,290.913 705.239,288.510 C 707.170,287.277 709.538,285.846 710.500,285.330 C 711.462,284.813 712.587,284.104 713,283.753 C 713.413,283.403 714.650,282.625 715.750,282.023 C 716.850,281.421 719.438,279.954 721.500,278.762 C 727.587,275.243 747.842,265.223 753.250,263.055 C 774.545,254.520 792.418,249.693 811.888,247.219 C 816.635,246.615 822.286,246.418 834.155,246.444 C 842.904,246.463 850.247,246.594 850.474,246.734 C 850.701,246.875 853.218,247.204 856.068,247.466 C 868.510,248.611 885.211,251.691 890.547,253.827 C 891.628,254.260 892.960,254.496 893.506,254.353 C 894.812,254.012 894.779,254.648 893.253,259.195 C 888.369,273.745 889.958,284.124 898.527,293.618 C 905.411,301.245 916.877,303.803 930.448,300.740 C 937.038,299.252 940,298.153 940,297.195 C 940,296.312 939.877,296.290 942.782,297.690 C 945.157,298.836 954.439,301.902 958.901,303.015 C 960.121,303.320 961.179,303.920 961.346,304.401 C 961.509,304.868 962.469,306.150 963.480,307.250 C 964.491,308.350 965.699,309.812 966.164,310.500 C 967.047,311.803 968.702,314.148 970.623,316.814 C 973.006,320.123 978.779,328.827 979.635,330.402 C 980.128,331.312 981.312,333.166 982.265,334.522 C 983.220,335.880 984,337.128 984,337.298 C 984,337.466 984.675,338.605 985.500,339.827 C 986.325,341.050 987,342.156 987,342.285 C 987,342.414 987.542,343.379 988.205,344.428 C 988.867,345.478 990.364,348.118 991.530,350.293 C 992.697,352.469 993.878,354.541 994.154,354.896 C 994.431,355.252 995.146,356.489 995.744,357.646 C 996.341,358.803 998.049,361.835 999.540,364.383 C 1001.030,366.931 1002.475,369.411 1002.750,369.894 C 1003.158,370.609 1006.383,375.982 1008.760,379.908 C 1010.871,383.393 1015.022,389.615 1018.905,395.114 C 1024.313,402.773 1047.566,425.233 1060.458,435.250 C 1061.874,436.350 1064.029,438.038 1065.246,439 C 1066.464,439.962 1068.313,441.382 1069.355,442.154 C 1070.397,442.925 1072.825,444.728 1074.750,446.161 C 1076.675,447.592 1078.812,449.152 1079.500,449.627 C 1080.188,450.101 1082.135,451.447 1083.828,452.620 C 1089.036,456.226 1100.197,463.736 1100.741,464 C 1101.023,464.137 1103.594,465.789 1106.454,467.671 C 1109.313,469.552 1112.187,471.334 1112.839,471.631 C 1114.020,472.169 1114.018,472.173 1112.362,472.742 C 1107.060,474.565 1098.227,483.080 1095.017,489.466 C 1092.889,493.699 1091.256,498.702 1091.746,499.493 C 1092.203,500.233 1091.840,500.140 1088.639,498.700 C 1084.041,496.630 1072.053,491.621 1057.500,485.687 C 1055.162,484.734 1051.160,482.952 1048.606,481.727 C 1046.052,480.502 1043.830,479.500 1043.667,479.500 C 1043.248,479.500 1025.712,470.757 1023,469.197 C 1012.354,463.070 1002.734,456.935 992.716,449.885 C 988.050,446.601 980.164,440.137 976.004,436.186 C 973.939,434.226 971.350,431.863 970.250,430.936 C 966.075,427.417 955.153,415.677 951.250,410.514 C 950.150,409.059 948.462,406.901 947.500,405.719 C 945.510,403.275 944.088,401.387 943,399.745 C 942.587,399.123 940.982,396.732 939.433,394.432 C 937.885,392.132 936.247,389.575 935.794,388.750 C 935.342,387.925 934.497,386.462 933.916,385.500 C 933.335,384.538 932.268,382.625 931.545,381.250 C 930.822,379.875 930.011,378.413 929.745,378 C 929.477,377.587 928.668,375.788 927.946,374 C 927.223,372.212 926.409,370.750 926.136,370.750 C 925.862,370.750 923.572,372.550 921.047,374.750 C 912.928,381.822 910.343,383.978 905.583,387.650 C 903.016,389.630 899.979,391.980 898.833,392.873 C 896.732,394.509 894.301,396.276 892,397.838 C 891.312,398.305 890.188,399.174 889.500,399.770 C 888.812,400.366 887.913,401 887.500,401.180 C 887.087,401.360 885.062,402.736 883,404.239 C 878.584,407.457 851.592,425.657 850.797,425.954 C 850.496,426.065 849.350,426.736 848.250,427.443 C 847.150,428.151 845.869,428.959 845.402,429.240 C 844.936,429.521 842.154,431.212 839.222,433 C 836.289,434.788 832.509,437 830.820,437.916 C 829.131,438.832 827.413,439.863 827,440.208 C 826.587,440.553 825.526,441.122 824.641,441.471 C 823.757,441.822 822.764,442.433 822.434,442.829 C 821.582,443.856 822.407,444.461 827.750,446.728 C 832.130,448.587 839.466,452.159 843,454.156 C 846.826,456.317 853.662,460 853.846,460 C 853.953,460 854.650,460.418 855.395,460.928 C 856.140,461.438 859,463.161 861.750,464.754 C 864.500,466.348 870.996,470.486 876.186,473.950 C 881.375,477.415 885.987,480.475 886.436,480.750 C 886.884,481.025 888.487,482.158 890,483.266 C 892.534,485.123 893.732,485.962 896.765,488 C 897.379,488.413 898.639,489.334 899.566,490.048 C 900.492,490.762 903.484,493.012 906.215,495.048 C 914.715,501.387 916.963,503.181 921.798,507.483 C 923.199,508.730 926.462,511.549 929.048,513.747 C 938.467,521.756 948.856,532.441 956.739,542.227 C 964.207,551.499 967.600,561.078 966.423,569.568 C 965.916,573.229 963.547,580.772 961.576,585 C 960.999,586.237 959.594,589.500 958.453,592.250 C 956.217,597.642 955.378,599.549 952.486,605.808 C 951.454,608.039 950.463,610.328 950.284,610.894 C 950.104,611.460 949.179,613.521 948.229,615.475 C 947.278,617.428 946.500,619.161 946.500,619.325 C 946.500,619.489 945.182,622.352 943.572,625.687 C 941.961,629.022 940.485,632.253 940.290,632.867 C 940.096,633.481 938.939,636.021 937.719,638.510 C 936.499,640.998 935.500,643.168 935.500,643.330 C 935.500,643.492 934.349,646.015 932.942,648.938 C 927.039,661.201 926,663.402 926,663.645 C 926,664.263 906.301,704.235 901.307,713.750 C 901.307,713.750 898.158,719.750 898.158,719.750 C 898.158,719.750 895.704,720.129 895.704,720.129 C 886.625,721.529 865.694,715.577 858.457,709.535 C 858.457,709.535 856.789,708.143 856.789,708.143 C 856.789,708.143 857.651,705.446 857.651,705.446 C 858.720,702.102 862.639,685.814 865.999,670.750 C 867.460,664.199 868.728,658.710 873.216,639.500 C 875.996,627.601 880.861,610.267 882.548,606.250 C 882.779,605.700 883.405,604.125 883.938,602.750 C 885.867,597.780 887.308,594.669 889.726,590.250 C 891.081,587.775 892.428,585.300 892.721,584.750 C 893.013,584.200 894.095,582.489 895.126,580.948 C 896.157,579.407 897,577.832 897,577.448 C 897,576.427 892.836,573.043 888.250,570.337 C 886.050,569.039 883.913,567.760 883.500,567.495 C 879.496,564.920 878.907,565.112 878.665,569.073 C 878.408,573.289 876.124,580.923 873.827,585.235 C 872.652,587.443 870.128,591.682 868.220,594.653 C 861.692,604.819 855.557,614.250 854.494,615.750 C 853.910,616.575 852.379,618.862 851.091,620.833 C 848.880,624.216 842.203,634.270 837.937,640.640 C 836.871,642.231 836,643.646 836,643.786 C 836,643.926 835.572,644.650 835.051,645.395 C 833.768,647.226 829.312,654.124 829,654.761 C 828.862,655.043 826.781,658.231 824.375,661.846 C 821.969,665.461 820,668.551 820,668.714 C 820,668.877 819.220,670.120 818.265,671.477 C 817.312,672.835 816.126,674.688 815.631,675.597 C 815.136,676.506 813.667,678.870 812.365,680.848 C 811.064,682.827 810,684.554 810,684.684 C 810,684.815 809.044,686.375 807.875,688.151 C 806.706,689.927 805.306,692.139 804.763,693.065 C 803.131,695.847 798.159,703.980 797,705.760 C 796.587,706.394 795.547,708.113 794.688,709.581 C 789.571,718.329 783.854,726.780 782.852,727.075 C 780.779,727.687 773.754,727.418 768.750,726.537" stroke="#193F4F" fill="#193F4F" stroke-width="1" />
  <path id="65" d="M 535.294,500.462 C 533.893,498.795 533.726,498.228 534.500,497.750 C 534.775,497.580 535,496.219 535,494.726 C 535,489.568 539.692,477.452 547.600,462.185 C 551.777,454.122 552.193,451.373 548.670,455.125 C 546.093,457.870 541.598,465.729 539.027,471.985 C 536.180,478.910 533.814,486.265 533.917,487.873 C 533.957,488.490 533.822,488.952 533.620,488.897 C 533.417,488.842 532.388,488.969 531.333,489.179 C 529.899,489.464 529.101,489.353 528.158,488.736 C 526.907,487.916 526.899,487.868 527.122,482.080 C 527.304,477.351 527.644,475.307 528.922,471.250 C 533.831,455.675 546.356,438.813 564.740,423.031 C 572.103,416.711 575.251,414.726 578.147,414.575 C 583.259,414.311 591.128,417.554 598.264,422.867 C 603.206,426.546 609.114,432.483 608.851,433.507 C 608.744,433.923 608.832,435.723 609.048,437.507 C 610.157,446.666 604.705,464.761 597.600,475.500 C 594.877,479.616 590.324,484.312 587.810,485.596 C 585.480,486.786 583.136,486.510 581.645,484.868 C 579.785,482.818 579.832,481.390 581.958,475.366 C 583.048,472.277 584.376,468.512 584.909,467 C 587.032,460.976 587.455,459 586.620,459 C 586.412,459 581.840,463.444 576.461,468.875 C 564.541,480.911 562.542,483.271 555.725,493.351 C 549.769,502.156 547.022,503.852 544.314,500.392 C 543.622,499.509 543.229,498.552 543.441,498.267 C 543.652,497.983 544.112,496.748 544.463,495.522 C 545.260,492.740 548.404,486.349 552.344,479.500 C 557.216,471.032 563.057,459.496 562.736,458.977 C 562.321,458.305 560.879,459.156 559.342,460.981 C 556.639,464.195 550.700,474.459 548.386,479.919 C 545.811,485.997 542.500,496.285 542.500,498.211 C 542.500,499.947 540.184,502 538.226,502 C 537.012,502 536.255,501.603 535.294,500.462" stroke="#FF9B57" fill="#FF9B57" stroke-width="1" />
  <path id="23" d="M 921.538,231.375 C 917.085,219.900 913.795,214.703 909.779,212.798 C 907.439,211.687 902.913,211.769 900.571,212.964 C 898.326,214.109 895.433,217.190 894.040,219.921 C 893.489,221.001 892.682,223.543 892.246,225.568 C 890.806,232.264 890.913,232 890.438,230 C 889.979,228.067 887.752,216.818 886.974,212.500 C 884.644,199.565 885.077,185.100 888.066,176.014 C 891.398,165.885 898.332,157.067 908.434,150.109 C 912.964,146.990 923.898,142.298 927.750,141.820 C 928.575,141.718 930.150,141.390 931.250,141.092 C 932.350,140.794 936.567,140.089 940.621,139.525 C 953.775,137.696 971.352,138.245 981.750,140.810 C 985.341,141.696 994.357,144.705 997.500,146.066 C 1006.886,150.132 1015.553,157.464 1018.940,164.205 C 1021.961,170.217 1022.523,175.909 1020.664,181.681 C 1019.460,185.424 1017.231,189.106 1015.101,190.867 C 1014.358,191.481 1012.788,192.806 1011.612,193.812 C 1010.436,194.817 1009.390,195.553 1009.289,195.445 C 1009.188,195.338 1008.609,193.403 1008.003,191.145 C 1006.655,186.124 1006.171,185.625 1003.630,186.636 C 1000.549,187.862 989.427,190.939 984.934,191.808 C 979.262,192.905 967.194,192.901 961.395,191.802 C 955.774,190.735 950.250,188.911 945.293,186.482 C 943.116,185.416 941.147,184.659 940.918,184.801 C 940.688,184.943 940.500,186.469 940.500,188.192 C 940.500,192.217 938.792,201.706 937.228,206.363 C 935.987,210.058 932.169,217.651 929.181,222.368 C 928.268,223.807 926.847,226.282 926.024,227.868 C 923.510,232.703 922.393,233.577 921.538,231.375" stroke="#5E2814" fill="#5E2814" stroke-width="1" />
  <path id="65" d="M 1175.495,533.043 C 1174.804,532.827 1169.360,530.142 1163.397,527.076 C 1157.433,524.009 1152.230,521.500 1151.835,521.500 C 1150.546,521.500 1149.984,525.645 1151.177,526.350 C 1151.550,526.570 1152.111,527.241 1152.426,527.841 C 1153.137,529.194 1152.056,530.500 1150.226,530.500 C 1148.650,530.500 1143.708,528.582 1138.921,526.115 C 1136.816,525.029 1134.678,524.004 1134.171,523.835 C 1133.665,523.667 1132.912,523.301 1132.500,523.023 C 1131.619,522.428 1121.099,517.500 1120.710,517.500 C 1119.812,517.500 1103.884,509.582 1101.498,507.949 C 1097.991,505.550 1092.508,500.950 1091.982,499.966 C 1091.262,498.620 1092.436,494.601 1095.088,489.325 C 1098.726,482.091 1110.149,471.959 1113.903,472.639 C 1115.781,472.978 1126.106,476.800 1129.880,478.550 C 1131.601,479.349 1133.281,480.058 1133.613,480.127 C 1133.946,480.195 1137.289,481.764 1141.042,483.615 C 1147.339,486.719 1161.382,495.608 1165.500,499.095 C 1166.463,499.910 1168.799,501.807 1170.693,503.310 C 1175.509,507.134 1190.935,521.968 1191.792,523.600 C 1192.997,525.898 1192.713,527.328 1190.926,527.951 C 1186.902,529.354 1184.236,528.278 1175.436,521.702 C 1171.933,519.085 1167.196,515.919 1164.909,514.668 C 1162.621,513.418 1158.387,511.106 1155.498,509.531 C 1152.610,507.956 1149.264,506.048 1148.065,505.291 C 1144.138,502.812 1134.882,498.500 1133.487,498.500 C 1130.683,498.500 1130.301,501.164 1132.753,503.616 C 1134.418,505.282 1139.725,508.048 1145.569,510.296 C 1153.041,513.172 1167.568,519.903 1169.750,521.500 C 1170.850,522.306 1172.987,523.856 1174.500,524.944 C 1176.013,526.033 1178.120,527.865 1179.182,529.016 C 1181.063,531.054 1181.090,531.132 1180.182,532.023 C 1179.031,533.152 1177.153,533.560 1175.495,533.043" stroke="#FF9B57" fill="#FF9B57" stroke-width="1" />
  <path id="65" d="M 797.823,796.715 C 792.684,795.915 789.964,794.767 783.466,790.653 C 778.428,787.463 766.632,780.693 759.250,776.755 C 756.775,775.434 751.938,772.845 748.500,770.999 C 745.062,769.154 738.101,765.433 733.029,762.731 C 726.799,759.412 723.029,757.067 721.404,755.501 C 719.060,753.241 719,753.110 719,750.203 C 719,746.659 720.312,743.674 726.229,733.756 C 728.360,730.185 730.668,726.135 731.360,724.756 C 732.051,723.378 733.445,721.013 734.458,719.500 C 736.155,716.968 737.783,712.057 738.932,706 C 739.186,704.658 739.540,704.211 740.452,704.081 C 741.293,703.962 741.557,704.107 741.355,704.581 C 740.037,707.660 738,713.182 738,713.676 C 738,714.621 744.057,718.383 749.100,720.570 C 758.226,724.528 770.565,727.500 777.872,727.500 C 783.625,727.500 783.414,727.654 788.247,719.948 C 792.476,713.205 793.287,712.404 794.865,713.405 C 795.319,713.694 795.222,714.015 794.490,714.643 C 793.946,715.109 793.485,715.886 793.466,716.370 C 793.448,716.854 792.428,718.600 791.199,720.250 C 789.970,721.900 788.511,723.963 787.957,724.834 C 787.403,725.705 786.399,726.779 785.725,727.221 C 783.620,728.600 784.111,730.194 787.832,734.048 C 789.664,735.947 791.423,737.500 791.740,737.500 C 792.057,737.500 792.989,738.231 793.811,739.125 C 794.633,740.019 799.361,744.688 804.317,749.500 C 811.819,756.785 814.284,758.845 819.039,761.799 C 830.096,768.672 832.716,770.202 833.527,770.261 C 834.508,770.333 837.500,772.391 837.500,772.994 C 837.500,773.228 839.038,774.538 840.918,775.905 C 846.450,779.929 849.388,784.912 847.400,786.900 C 846.398,787.903 841.222,787.621 838.342,786.407 C 836.917,785.806 832.258,783.218 827.990,780.657 C 816.039,773.485 815.766,774.287 826.454,785.172 C 830.192,788.979 834.038,792.518 835,793.037 C 835,793.037 836.750,793.980 836.750,793.980 C 836.750,793.980 832.500,793.670 832.500,793.670 C 827.212,793.284 826.082,792.735 815.779,785.538 C 808.292,780.309 805.864,778.969 805.156,779.677 C 804.674,780.159 808.882,785.287 811.414,787.303 C 815.103,790.241 818.018,793.131 818.808,794.634 C 819.452,795.860 819.447,796.052 818.764,796.314 C 816.452,797.201 808.746,793.674 798.509,787.043 C 792.689,783.274 791,782.448 791,783.375 C 791,783.581 793.814,786.412 797.254,789.664 C 800.693,792.918 803.739,796.011 804.021,796.539 C 804.644,797.704 804.256,797.715 797.823,796.715" stroke="#FF9B57" fill="#FF9B57" stroke-width="1" />
  <path id="65" d="M 935.250,772.682 C 928.561,771.992 920.884,770.543 906.500,767.258 C 880.323,761.279 863.028,757.083 858.904,755.714 C 852.842,753.702 847.283,749.654 846.032,746.342 C 845.300,744.404 845.403,739.119 846.215,737 C 848.542,730.926 849.646,727.547 849.774,726.116 C 849.854,725.217 850.385,723.755 850.956,722.866 C 852.846,719.918 855.784,712.847 856.351,709.875 C 856.495,709.119 856.700,708.500 856.806,708.500 C 856.911,708.500 858.098,709.290 859.443,710.256 C 864.288,713.737 874.587,717.718 882.831,719.298 C 885.261,719.763 889.658,720.152 892.601,720.162 C 892.601,720.162 897.953,720.180 897.953,720.180 C 897.953,720.180 898.539,721.594 898.539,721.594 C 899.720,724.446 907.785,730.809 916.185,735.518 C 917.799,736.423 920.049,738.021 921.185,739.069 C 923.944,741.617 937.076,751.957 945.224,757.999 C 953.098,763.838 955,765.652 955,767.322 C 955,771.080 951.629,772.648 943.250,772.788 C 939.950,772.843 936.350,772.795 935.250,772.682" stroke="#FF9B57" fill="#FF9B57" stroke-width="1" />
  <path id="65" d="M 959.250,303.171 C 945.614,299.209 942.990,298.154 937,294.216 C 928.157,288.404 923.393,283.505 920.139,276.877 C 917.268,271.027 915.556,263.274 915.515,255.938 C 915.515,255.938 915.500,253.125 915.500,253.125 C 915.500,253.125 913.476,254.127 913.476,254.127 C 908.288,256.694 903.809,255.344 897.944,249.444 C 893.594,245.067 891.856,241.310 891.221,234.909 C 890.854,231.201 892.333,223.268 894,219.999 C 895.430,217.196 898.303,214.121 900.571,212.964 C 902.913,211.769 907.439,211.687 909.779,212.798 C 913.402,214.517 917.343,220.419 920.551,228.931 C 922.359,233.728 923.046,233.595 926.024,227.868 C 926.847,226.282 928.268,223.807 929.181,222.368 C 932.169,217.651 935.987,210.058 937.228,206.363 C 938.792,201.706 940.500,192.217 940.500,188.192 C 940.500,186.469 940.688,184.943 940.918,184.801 C 941.147,184.659 943.116,185.416 945.293,186.482 C 950.250,188.911 955.774,190.735 961.395,191.802 C 967.194,192.901 979.262,192.905 984.934,191.808 C 989.427,190.939 1000.549,187.862 1003.630,186.636 C 1005.054,186.069 1005.678,186.025 1006.199,186.458 C 1008.188,188.109 1010.500,202.939 1010.500,214.054 C 1010.500,214.054 1010.500,217.966 1010.500,217.966 C 1010.500,217.966 1008.731,216.923 1008.731,216.923 C 1006.088,215.363 1002.385,215.804 998.643,218.121 C 996.754,219.291 995.692,220.299 995.581,221.028 C 995.416,222.117 995.495,222.136 998.831,221.814 C 1000.712,221.632 1004.106,221.344 1006.375,221.172 C 1006.375,221.172 1010.500,220.859 1010.500,220.859 C 1010.500,220.859 1010.500,222.708 1010.500,222.708 C 1010.500,227.959 1007.596,247.812 1005.421,257.438 C 1002.535,270.205 999.121,279.685 995.376,285.322 C 994.620,286.462 994,287.545 994,287.727 C 994,288.351 990.792,292.245 987.269,295.901 C 983.606,299.702 979.942,301.901 975.500,302.966 C 972.295,303.735 961.654,303.868 959.250,303.171M 985.961,278.868 C 987.795,277.932 987.946,276.861 986.174,277.346 C 985.391,277.560 983.625,277.723 982.250,277.705 C 977.654,277.649 970.812,273.220 968.158,268.583 C 967.423,267.300 966.769,266.175 966.704,266.084 C 966.639,265.993 966.116,266.170 965.543,266.477 C 963.716,267.455 964.142,270.134 966.538,272.733 C 968.976,275.378 972.712,277.859 975.627,278.770 C 978.333,279.615 984.383,279.673 985.961,278.868M 991.646,264.208 C 993.028,263.738 994.611,262.687 995.549,261.618 C 995.549,261.618 997.128,259.820 997.128,259.820 C 997.128,259.820 996.768,253.535 996.768,253.535 C 996.569,250.078 996.259,243.762 996.078,239.500 C 996.078,239.500 995.750,231.750 995.750,231.750 C 995.750,231.750 994.750,233.227 994.750,233.227 C 993.832,234.584 993.736,235.698 993.573,246.851 C 993.573,246.851 993.398,258.998 993.398,258.998 C 993.398,258.998 991.910,260.248 991.910,260.248 C 990.764,261.213 989.859,261.500 987.962,261.500 C 985.592,261.500 985.500,261.553 985.500,262.916 C 985.500,263.695 985.650,264.483 985.833,264.666 C 986.417,265.250 989.244,265.026 991.646,264.208M 1004.298,238.447 C 1005.605,237.003 1005.647,231.933 1004.362,230.648 C 1003.553,229.838 1003.355,229.827 1002.123,230.518 C 999.064,232.234 997.546,236.617 999.327,238.585 C 1000.466,239.844 1003.100,239.770 1004.298,238.447M 912.500,237.749 C 913.520,236.520 912.859,231.893 911.201,228.649 C 909.356,225.043 907.091,223.393 904.266,223.601 C 901.682,223.792 901.612,224.874 904.130,225.739 C 905.164,226.095 906.361,226.678 906.792,227.035 C 908.178,228.185 909.475,231.351 909.783,234.338 C 909.948,235.940 910.170,237.531 910.276,237.875 C 910.539,238.730 911.744,238.661 912.500,237.749M 968.232,236.948 C 969.694,235.665 970,235.055 970,233.425 C 970,229.036 965.447,227.582 962.375,230.990 C 960.569,232.994 960.510,235.554 962.227,237.273 C 963.947,238.993 966.032,238.880 968.232,236.948M 975.887,218.589 C 976.193,217.672 974.097,215.560 972,214.673 C 969.438,213.589 964.086,213.260 961.015,213.996 C 958.213,214.668 955,217.036 955,218.427 C 955.001,219.165 956.073,219.250 965.333,219.250 C 973.453,219.250 975.714,219.108 975.887,218.589" stroke="#FF9B57" fill="#FF9B57" stroke-width="1" />
  <path id="68" d="M 838.856,793.949 C 838.365,793.663 837.689,793.526 837.356,793.645 C 835.985,794.134 832.889,791.727 826.454,785.173 C 815.766,774.285 816.039,773.485 827.990,780.657 C 838.196,786.782 840.235,787.626 844.312,787.415 C 846.115,787.322 847.573,787.464 847.665,787.742 C 847.926,788.532 846.068,791.337 844.193,792.982 C 842.404,794.553 840.490,794.900 838.856,793.949" stroke="#EB6E19" fill="#EB6E19" stroke-width="1" />
  <path id="68" d="M 1151.250,530.403 C 1151.800,530.091 1152.403,529.603 1152.590,529.319 C 1152.992,528.710 1152.140,526.918 1151.177,526.350 C 1150.427,525.907 1150.335,523.796 1151,522.250 C 1151.415,521.284 1151.431,521.283 1151.465,522.218 C 1151.485,522.750 1151.987,523.704 1152.582,524.337 C 1153.373,525.180 1153.642,526.048 1153.583,527.567 C 1153.488,529.981 1152.807,531.006 1151.313,530.985 C 1150.265,530.970 1150.265,530.961 1151.250,530.403" stroke="#EB6E19" fill="#EB6E19" stroke-width="1" />
  <path id="62" d="M 922.135,299.998 C 922.622,299.690 922.889,299.224 922.726,298.961 C 922.563,298.699 922.221,298.613 921.966,298.772 C 921.346,299.154 921.343,299.180 922.548,293.126 C 923.375,288.966 923.476,287.596 923.029,286.614 C 922.717,285.930 922.562,285.271 922.684,285.149 C 922.807,285.027 925.039,286.688 927.646,288.839 C 935.606,295.407 936.324,295.937 937.760,296.298 C 939.024,296.252 939.024,295.202 938.776,297 C 938.057,297 935.239,297.663 932.514,298.472 C 927.246,300.037 920.507,301.028 922.135,299.998" stroke="#EB601F" fill="#EB601F" stroke-width="1" />
  <path id="68" d="M 542.500,498.136 C 542.500,496.275 545.855,485.893 548.386,479.919 C 550.700,474.459 556.639,464.195 559.342,460.981 C 560.879,459.156 562.321,458.305 562.736,458.977 C 563.057,459.496 557.216,471.032 552.344,479.500 C 548.391,486.371 545.256,492.750 544.469,495.522 C 544.121,496.748 543.535,498.079 543.168,498.482 C 542.591,499.115 542.500,499.067 542.500,498.136" stroke="#EB6E19" fill="#EB6E19" stroke-width="1" />
  <path id="62" d="M 1137.382,506.675 C 1135.531,505.687 1133.445,504.308 1132.747,503.611 C 1130.299,501.162 1130.687,498.500 1133.493,498.500 C 1135.525,498.500 1147.293,504.407 1146.614,505.086 C 1146.249,505.451 1145.621,505.469 1144.663,505.140 C 1143.007,504.573 1139.634,504.878 1139.165,505.638 C 1138.985,505.928 1139.494,506.690 1140.294,507.330 C 1142.379,508.998 1141.271,508.748 1137.382,506.675" stroke="#EB601F" fill="#EB601F" stroke-width="1" />
  <path id="68" d="M 1178.965,528.820 C 1178.022,527.759 1176.013,526.008 1174.500,524.928 C 1172.987,523.848 1170.850,522.306 1169.750,521.500 C 1167.636,519.952 1153.093,513.189 1146.110,510.506 C 1141.781,508.843 1138.411,506.389 1139.274,505.526 C 1140.165,504.635 1147.915,504.894 1149.080,505.854 C 1149.448,506.158 1152.225,507.754 1155.250,509.401 C 1158.275,511.047 1162.621,513.418 1164.909,514.668 C 1167.196,515.919 1171.933,519.085 1175.436,521.702 C 1178.939,524.319 1182.805,526.918 1184.027,527.475 C 1184.027,527.475 1186.250,528.487 1186.250,528.487 C 1186.250,528.487 1183.784,528.369 1183.784,528.369 C 1181.529,528.260 1181.292,528.356 1180.999,529.500 C 1180.999,529.500 1180.679,530.750 1180.679,530.750 C 1180.679,530.750 1178.965,528.820 1178.965,528.820" stroke="#EB6E19" fill="#EB6E19" stroke-width="1" />
  <path id="68" d="M 975.627,278.770 C 972.712,277.859 968.976,275.378 966.538,272.733 C 964.142,270.134 963.716,267.455 965.543,266.477 C 966.116,266.170 966.639,265.993 966.704,266.084 C 966.769,266.175 967.423,267.300 968.158,268.583 C 970.812,273.220 977.654,277.649 982.250,277.705 C 983.625,277.723 985.391,277.560 986.174,277.346 C 987.946,276.861 987.795,277.932 985.961,278.868 C 984.383,279.673 978.333,279.615 975.627,278.770" stroke="#EB6E19" fill="#EB6E19" stroke-width="1" />
  <path id="27" d="M 962.227,237.273 C 960.510,235.554 960.569,232.994 962.375,230.990 C 965.447,227.582 970,229.036 970,233.425 C 970,235.055 969.694,235.665 968.232,236.948 C 966.032,238.880 963.947,238.993 962.227,237.273" stroke="#272207" fill="#272207" stroke-width="1" />
  <path id="68" d="M 921,299.863 C 921,298.643 921.150,298.577 923,298.978 C 923.138,299.007 922.800,299.387 922.250,299.822 C 921.320,300.557 921.471,300.589 924.405,300.278 C 926.140,300.094 929.789,299.281 932.514,298.472 C 937.545,296.977 940,296.640 940,297.445 C 940,298.295 935.731,299.642 931.750,300.048 C 919.779,301.269 921,301.291 921,299.863" stroke="#EB6E19" fill="#EB6E19" stroke-width="1" />
  <path id="68" d="M 936.685,295.868 C 935.034,294.909 930.280,291.219 926.429,287.904 C 922.920,284.885 921.917,284.476 923.005,286.510 C 923.371,287.195 923.452,288.288 923.221,289.428 C 923.221,289.428 922.850,291.250 922.850,291.250 C 922.850,291.250 922.269,288.499 922.269,288.499 C 921.950,286.986 920.726,284.100 919.550,282.086 C 915.411,274.999 914.007,270.679 913.223,262.625 C 912.924,259.550 912.987,259 913.636,259 C 914.204,259 914.495,259.809 914.761,262.125 C 915.202,265.958 916.724,271.898 918.122,275.248 C 919.323,278.126 923.353,284.469 924.038,284.562 C 924.293,284.597 924.669,284.659 924.875,284.700 C 925.081,284.741 926.150,285.635 927.250,286.686 C 929.656,288.985 936.909,294.500 937.525,294.500 C 937.767,294.500 938.206,294.950 938.500,295.500 C 939.136,296.688 938.368,296.844 936.685,295.868" stroke="#EB6E19" fill="#EB6E19" stroke-width="1" />
  <path id="27" d="M 999.327,238.585 C 997.546,236.617 999.064,232.234 1002.123,230.518 C 1003.355,229.827 1003.553,229.838 1004.362,230.648 C 1005.647,231.933 1005.605,237.003 1004.298,238.447 C 1003.100,239.770 1000.466,239.844 999.327,238.585" stroke="#272207" fill="#272207" stroke-width="1" />
  <path id="26" d="M 995.581,221.028 C 995.861,219.181 1000.965,216.347 1004.409,216.127 C 1008.059,215.893 1010.500,217.213 1010.500,219.422 C 1010.500,219.422 1010.500,220.859 1010.500,220.859 C 1010.500,220.859 1006.375,221.172 1006.375,221.172 C 1004.106,221.344 1000.712,221.632 998.831,221.814 C 995.495,222.136 995.416,222.117 995.581,221.028" stroke="#3C0B08" fill="#3C0B08" stroke-width="1" />
  <path id="68" d="M 985.833,264.666 C 985.650,264.483 985.500,263.695 985.500,262.916 C 985.500,261.553 985.592,261.500 987.962,261.500 C 989.859,261.500 990.764,261.213 991.910,260.248 C 991.910,260.248 993.398,258.998 993.398,258.998 C 993.398,258.998 993.573,246.851 993.573,246.851 C 993.736,235.698 993.832,234.584 994.750,233.227 C 994.750,233.227 995.750,231.750 995.750,231.750 C 995.750,231.750 996.078,239.500 996.078,239.500 C 996.259,243.762 996.569,250.078 996.768,253.535 C 996.768,253.535 997.128,259.820 997.128,259.820 C 997.128,259.820 995.549,261.618 995.549,261.618 C 994.611,262.687 993.028,263.738 991.646,264.208 C 989.244,265.026 986.417,265.250 985.833,264.666" stroke="#EB6E19" fill="#EB6E19" stroke-width="1" />
  <path id="68" d="M 533.892,492.644 C 533.764,487.791 533.905,486.749 535.301,482.250 C 538.676,471.365 544.482,459.586 548.670,455.125 C 552.193,451.373 551.777,454.122 547.600,462.185 C 539.692,477.452 535,489.568 535,494.726 C 535,496.219 534.783,497.575 534.517,497.740 C 534.221,497.923 533.979,495.950 533.892,492.644" stroke="#EB6E19" fill="#EB6E19" stroke-width="1" />
  <path id="68" d="M 910.276,237.875 C 910.170,237.531 909.948,235.940 909.783,234.338 C 909.475,231.351 908.178,228.185 906.792,227.035 C 906.361,226.678 905.164,226.095 904.130,225.739 C 901.612,224.874 901.682,223.792 904.266,223.601 C 905.726,223.494 906.759,223.774 908.007,224.615 C 912.375,227.560 914.870,238.500 911.173,238.500 C 910.785,238.500 910.382,238.219 910.276,237.875" stroke="#EB6E19" fill="#EB6E19" stroke-width="1" />
  <path id="65" d="M 912,301.220 C 906.593,300.055 901.995,297.459 898.527,293.618 C 889.934,284.097 888.365,273.754 893.289,259.086 C 893.995,256.981 894.641,255.191 894.725,255.108 C 894.808,255.025 896.090,255.494 897.573,256.151 C 901.862,258.047 905.172,259.024 908.581,259.401 C 908.581,259.401 911.750,259.750 911.750,259.750 C 911.750,259.750 912.106,263 912.106,263 C 913.009,271.252 915.471,278.103 920.035,285.053 C 922.360,288.594 922.628,289.283 922.595,291.629 C 922.574,293.070 922.209,295.375 921.784,296.750 C 920.449,301.067 920.518,301.185 924.125,300.822 C 925.844,300.648 928.487,300.399 930,300.267 C 930,300.267 932.750,300.027 932.750,300.027 C 932.750,300.027 929,300.993 929,300.993 C 924.497,302.152 916.804,302.255 912,301.220" stroke="#FF9B57" fill="#FF9B57" stroke-width="1" />
  <path id="62" d="M 919.563,284.348 C 915.450,278.034 912.976,270.950 912.106,263 C 912.106,263 911.750,259.750 911.750,259.750 C 911.750,259.750 908.581,259.401 908.581,259.401 C 904.163,258.913 895.291,255.776 894.439,254.400 C 894.039,253.754 894.759,250.542 895.461,249.839 C 895.758,249.542 896,248.915 896,248.444 C 896,247.855 896.851,248.417 898.720,250.242 C 902.360,253.796 906.282,255.711 909.236,255.378 C 910.455,255.240 912.363,254.678 913.476,254.127 C 913.476,254.127 915.500,253.125 915.500,253.125 C 915.500,253.125 915.515,255.938 915.515,255.938 C 915.569,265.774 918.874,276.768 923.527,282.596 C 925.186,284.673 925.333,285.096 924.254,284.683 C 923.273,284.306 919.446,278.418 918.122,275.248 C 916.724,271.898 915.202,265.958 914.761,262.125 C 914.495,259.809 914.204,259 913.636,259 C 912.987,259 912.924,259.550 913.223,262.625 C 914.015,270.766 915.258,274.582 919.575,282.130 C 922.586,287.392 922.577,288.974 919.563,284.348" stroke="#EB601F" fill="#EB601F" stroke-width="1" />
  <path id="27" d="M 955,218.427 C 955,217.036 958.213,214.668 961.015,213.996 C 964.086,213.260 969.438,213.589 972,214.673 C 972.962,215.079 974.280,215.978 974.928,216.671 C 977.191,219.084 976.576,219.250 965.333,219.250 C 956.073,219.250 955.001,219.165 955,218.427" stroke="#272207" fill="#272207" stroke-width="1" />
  </g><g id="surfboard 2"><path id="12" d="M 1150.901,891.235 C 1150.676,891.009 1141.159,890.428 1135.919,890.319 C 1134.088,890.281 1132.419,890.081 1132.211,889.875 C 1132.004,889.669 1130.394,889.500 1128.634,889.500 C 1126.874,889.500 1124.984,889.259 1124.433,888.965 C 1123.495,888.463 1116.994,887.790 1107.750,887.240 C 1105.550,887.109 1101.950,886.868 1099.750,886.706 C 1097.550,886.544 1094.176,886.317 1092.252,886.203 C 1090.328,886.090 1088.026,885.756 1087.137,885.462 C 1086.247,885.169 1085.294,885.068 1085.020,885.237 C 1084.745,885.408 1084.072,885.306 1083.524,885.013 C 1082.324,884.371 1076.150,883.470 1071.045,883.192 C 1069.007,883.081 1067.040,882.740 1063.193,881.952 C 1062.858,881.674 1061.271,881.334 1059.667,881.196 C 1055.523,880.840 1054.987,880.756 1052.750,880.113 C 1051.650,879.797 1049.400,879.419 1047.750,879.274 C 1046.100,879.128 1042.612,878.548 1040,877.986 C 1037.388,877.423 1034.857,877.062 1034.376,877.184 C 1033.736,876.955 1030.754,876.492 1030.068,876.473 C 1029.618,876.218 1023.714,874.996 1016.947,873.757 C 1010.181,872.518 1001.293,870.802 997.197,869.943 C 986.121,867.621 986.493,867.699 976,865.541 C 970.638,864.438 963.550,862.953 960.250,862.241 C 956.950,861.529 953.576,860.808 952.753,860.636 C 951.928,860.466 950.984,860.055 950.652,859.723 C 950.321,859.392 948.970,858.965 947.650,858.774 C 945.087,858.404 939.135,857.068 932.966,855.476 C 930.885,854.939 928.285,854.500 927.190,854.500 C 922.689,854.500 863.436,839.350 836.750,831.376 C 832.075,829.979 827.807,828.863 827.265,828.895 C 826.724,828.928 826.162,828.765 826.015,828.534 C 825.870,828.303 823.388,827.394 820.500,826.513 C 817.612,825.631 814.350,824.490 813.250,823.977 C 809.371,822.168 803.716,820.170 800.750,819.562 C 799.100,819.225 793.475,817.601 788.250,815.956 C 783.025,814.311 778.115,812.902 777.337,812.826 C 776.561,812.750 775.761,812.423 775.561,812.099 C 775.180,811.482 769.591,809.466 767.586,809.221 C 765.514,808.969 752.055,803.413 749.363,801.699 C 747.926,800.784 745.847,799.608 744.743,799.086 C 743.639,798.564 742.430,797.769 742.057,797.318 C 741.683,796.869 741.085,796.500 740.728,796.500 C 740.078,796.500 735.388,792.443 729.750,787.004 C 728.100,785.413 725.420,782.960 723.795,781.553 C 722.170,780.148 720.591,778.495 720.285,777.883 C 719.980,777.270 719.284,776.527 718.740,776.230 C 718.196,775.933 714.487,772.470 710.500,768.536 C 699.126,757.315 698.253,756.500 695.538,754 C 694.855,754 692.740,751.924 692.354,750.875 C 692.177,750.394 691.797,750 691.509,750 C 690.993,750 688.316,747.380 681,739.714 C 678.938,737.553 677.081,735.833 676.875,735.893 C 676.669,735.952 676.500,735.677 676.500,735.280 C 676.500,734.885 674.193,732.309 671.375,729.557 C 668.557,726.804 665.125,723.183 663.750,721.510 C 658.085,714.614 654.375,710.500 653.822,710.500 C 653.499,710.500 650.670,707.686 647.537,704.246 C 644.403,700.807 641.590,698.050 641.285,698.120 C 640.583,698.281 633.241,690.592 633.678,690.155 C 634.040,689.793 643.960,690.582 654.960,691.848 C 659.098,692.324 661.760,692.823 661.210,693.019 C 660.125,693.405 661.057,693.578 669.250,694.511 C 672,694.824 675.193,695.288 676.346,695.540 C 679.194,696.164 680.639,696.130 680.217,695.447 C 679.984,695.069 680.332,694.985 681.312,695.181 C 682.103,695.338 684.438,695.699 686.500,695.982 C 688.562,696.266 691.712,696.729 693.500,697.010 C 695.288,697.292 697.763,697.639 699,697.783 C 700.237,697.927 702.756,698.278 704.598,698.562 C 706.439,698.848 708.692,699.017 709.605,698.938 C 710.518,698.860 711.486,698.923 711.757,699.078 C 712.818,699.688 714.792,699.938 715.431,699.543 C 715.826,699.298 716.693,699.423 717.538,699.844 C 718.912,700.529 735.760,703.500 738.270,703.500 C 739.354,703.500 739.447,703.663 739.192,705.125 C 739.035,706.019 738.597,707.763 738.216,709 C 737.835,710.237 737.265,712.475 736.949,713.971 C 736.616,715.551 735.587,717.860 734.496,719.471 C 733.463,721 732.113,723.263 731.496,724.500 C 730.879,725.737 728.510,729.900 726.231,733.750 C 723.953,737.600 721.804,741.375 721.457,742.139 C 721.043,743.050 720.701,743.324 720.461,742.936 C 720.181,742.483 719.534,742.500 717.713,743.010 C 714.560,743.893 711.217,747.064 710.739,749.625 C 709.877,754.242 712.082,757.444 719.130,761.803 C 721.646,763.360 723.976,764.905 724.309,765.239 C 724.643,765.572 725.665,766.126 726.582,766.471 C 729.133,767.431 739.270,772.209 755,779.865 C 762.837,783.680 771.388,787.777 774,788.968 C 776.612,790.160 781.112,792.249 784,793.607 C 789.500,796.197 792.086,797.173 795,797.763 C 795.962,797.958 796.975,798.256 797.250,798.426 C 797.892,798.822 798.716,798.886 807.806,799.242 C 814.792,799.515 815.584,799.455 818.306,798.433 C 820.126,797.750 822.966,797.217 825.742,797.038 C 830.060,796.761 830.273,796.691 831.226,795.232 C 832.184,793.767 832.332,793.720 835.485,793.859 C 837.280,793.938 839.562,794.135 840.554,794.298 C 842.098,794.550 842.626,794.359 844.205,792.972 C 846.566,790.899 847.614,788.859 847.859,785.854 C 848.033,783.722 847.848,783.177 846.194,780.924 C 845.172,779.531 842.797,777.273 840.918,775.905 C 839.038,774.538 837.500,773.228 837.500,772.994 C 837.500,772.391 834.508,770.333 833.527,770.261 C 832.716,770.202 830.096,768.672 819.039,761.799 C 814.284,758.845 811.819,756.785 804.317,749.500 C 799.361,744.688 794.633,740.019 793.811,739.125 C 792.989,738.231 792.057,737.500 791.740,737.500 C 791.423,737.500 789.664,735.947 787.832,734.048 C 784.111,730.194 783.620,728.600 785.725,727.221 C 786.399,726.779 787.403,725.705 787.957,724.834 C 788.511,723.963 789.970,721.900 791.199,720.250 C 792.428,718.600 793.448,716.854 793.466,716.370 C 793.485,715.886 793.946,715.109 795.500,713.222 C 796.188,713.361 800.350,713.939 804.750,714.506 C 809.150,715.074 814.212,715.760 816,716.030 C 817.788,716.301 821.837,716.845 825,717.240 C 836.662,718.696 838.651,719.003 839.194,719.430 C 839.500,719.670 841.890,720.144 844.505,720.482 C 844.505,720.482 849.260,721.097 849.260,721.097 C 849.260,721.097 849.203,723.673 849.203,723.673 C 849.172,725.091 849.350,726.383 849.598,726.545 C 849.866,726.720 849.851,727.334 849.561,728.045 C 849.292,728.708 848.486,730.846 847.771,732.798 C 846.839,735.341 846.105,736.543 845.176,737.040 C 843.223,738.085 840.265,741.683 839.614,743.806 C 838.545,747.287 841.253,751.115 847.697,755.238 C 854.238,759.422 862.653,762.541 876.683,765.981 C 907.421,773.519 915.867,775.567 919.135,776.276 C 921.124,776.707 923.212,777.285 923.778,777.562 C 924.342,777.838 925.018,778.005 925.278,777.931 C 926.016,777.721 932.625,779.013 933.845,779.605 C 934.447,779.898 935.596,780.006 936.397,779.846 C 937.198,779.685 938.082,779.782 938.361,780.061 C 938.991,780.692 948.328,780.360 951.610,779.590 C 956.475,778.448 958.944,776.475 960.483,772.500 C 960.856,771.538 961.349,770.536 961.580,770.275 C 962.365,769.386 962.004,766.986 960.797,765.073 C 958.293,761.106 952.828,757.319 941.896,751.973 C 939.115,750.613 936.594,749.499 936.294,749.498 C 935.995,749.497 934.570,748.601 933.129,747.509 C 931.687,746.415 929.960,745.384 929.290,745.216 C 927.695,744.815 926.301,743.240 926.677,742.261 C 927.131,741.076 929.476,740.400 932.250,740.655 C 935.232,740.930 945.926,742.764 948.750,743.485 C 949.850,743.765 952.212,744.326 954,744.730 C 955.788,745.135 961.075,746.505 965.750,747.777 C 970.425,749.048 975.150,750.263 976.250,750.476 C 981.264,751.447 990.907,754.014 1011.250,759.789 C 1017.575,761.586 1023.987,763.387 1025.500,763.794 C 1027.013,764.201 1030.500,765.208 1033.250,766.033 C 1036,766.857 1039.037,767.742 1040,768 C 1047.361,769.963 1081.569,780.280 1085.500,781.722 C 1086.463,782.076 1095.013,784.898 1104.500,787.994 C 1113.987,791.090 1123.662,794.357 1126,795.255 C 1128.338,796.153 1131.938,797.491 1134,798.231 C 1137.016,799.311 1146.147,802.852 1163.750,809.770 C 1164.300,809.986 1164.862,810.197 1165,810.237 C 1165.138,810.278 1166.121,810.691 1167.186,811.155 C 1168.251,811.620 1169.277,812 1169.467,812 C 1169.657,812 1170.698,812.423 1171.781,812.941 C 1175.050,814.503 1178.430,816 1178.688,816 C 1178.821,816 1180.465,816.693 1182.340,817.540 C 1188.150,820.165 1188.696,820.407 1192.778,822.170 C 1205.532,827.678 1230.845,840.049 1237.941,844.242 C 1240.335,845.657 1242.621,846.971 1243.022,847.163 C 1243.422,847.354 1244.425,847.950 1245.250,848.487 C 1246.075,849.024 1247.542,849.865 1248.509,850.356 C 1250.091,851.160 1260.618,858.151 1264.966,861.285 C 1270.248,865.095 1275.345,869.975 1276.633,872.458 C 1278.225,875.526 1278.256,875.840 1277.221,878.427 C 1276.655,879.841 1275.937,880.598 1274.596,881.191 C 1270.457,883.020 1244.251,888.756 1242.718,888.168 C 1242.367,888.034 1241.656,888.149 1241.140,888.425 C 1240.625,888.701 1237.769,889.058 1234.794,889.219 C 1231.819,889.380 1229.145,889.660 1228.851,889.842 C 1228.556,890.024 1227.176,890.237 1225.783,890.315 C 1224.390,890.393 1221.112,890.648 1218.500,890.882 C 1215.888,891.116 1208.237,891.134 1201.500,890.922 C 1183.207,890.346 1163.777,890.320 1162.695,890.870 C 1161.787,891.331 1151.321,891.654 1150.901,891.235" stroke="#FF9037" fill="#FF9037" stroke-width="1" />
  <path id="68" d="M 1147.415,911.248 C 1147.314,911.148 1142.961,910.817 1137.741,910.514 C 1120.513,909.513 1103.155,907.692 1090,905.505 C 1088.487,905.254 1085.112,904.800 1082.500,904.497 C 1079.888,904.194 1076.625,903.731 1075.250,903.468 C 1073.875,903.205 1068.475,902.321 1063.250,901.502 C 1058.025,900.683 1052.513,899.789 1051,899.514 C 1049.487,899.240 1045.662,898.562 1042.500,898.008 C 1025.024,894.945 1012.518,892.601 1005.250,891.025 C 1002.775,890.489 998.612,889.673 996,889.212 C 993.388,888.752 988.212,887.707 984.500,886.889 C 980.788,886.072 974.712,884.764 971,883.982 C 959.327,881.524 953.252,880.188 943.750,877.989 C 934.029,875.739 931.173,875.062 929.250,874.554 C 923.850,873.128 898.261,866.766 894.750,865.977 C 892.550,865.483 888.500,864.484 885.750,863.757 C 883,863.030 877.375,861.558 873.250,860.487 C 869.125,859.417 862.938,857.769 859.500,856.827 C 856.062,855.884 851,854.509 848.250,853.770 C 845.500,853.033 840.663,851.646 837.500,850.690 C 834.337,849.734 829.612,848.308 827,847.521 C 819.115,845.148 808.919,841.976 806,840.990 C 804.487,840.479 801.629,839.582 799.646,838.995 C 797.664,838.409 795.106,837.477 793.962,836.924 C 792.817,836.371 791.323,835.860 790.641,835.787 C 788.229,835.529 765.343,818.796 750.325,806.308 C 727.809,787.584 696.268,757.516 671.313,730.988 C 651.710,710.148 641.254,698.889 641.083,698.439 C 640.515,696.941 642.547,698.769 647.540,704.250 C 650.672,707.688 653.499,710.500 653.822,710.500 C 654.375,710.500 658.085,714.614 663.750,721.510 C 665.125,723.183 668.557,726.804 671.375,729.557 C 674.193,732.309 676.500,734.885 676.500,735.280 C 676.500,735.677 676.669,735.952 676.875,735.893 C 677.081,735.833 678.938,737.553 681,739.714 C 688.316,747.380 690.993,750 691.509,750 C 691.797,750 692.177,750.394 692.354,750.875 C 692.740,751.924 694.855,754 697.595,756.500 C 698.253,756.500 699.126,757.315 710.500,768.536 C 714.487,772.470 718.196,775.933 718.740,776.230 C 719.284,776.527 719.980,777.270 720.285,777.883 C 720.591,778.495 722.170,780.148 723.795,781.553 C 725.420,782.960 728.100,785.413 729.750,787.004 C 735.388,792.443 740.078,796.500 740.728,796.500 C 741.085,796.500 741.683,796.869 742.057,797.318 C 742.430,797.769 743.639,798.564 744.743,799.086 C 745.847,799.608 747.926,800.784 749.363,801.699 C 752.055,803.413 765.514,808.969 767.586,809.221 C 769.591,809.466 775.180,811.482 775.561,812.099 C 775.761,812.423 776.561,812.743 777.337,812.811 C 778.115,812.879 784.263,814.778 791,817.031 C 807.205,822.451 807.418,822.520 817.250,825.522 C 821.925,826.949 825.870,828.305 826.015,828.535 C 826.162,828.766 826.724,828.928 827.265,828.895 C 827.807,828.863 832.075,829.979 836.750,831.376 C 865.140,839.860 916.993,852.984 949.750,859.978 C 956.350,861.387 963.775,862.979 966.250,863.514 C 968.725,864.050 974.688,865.282 979.500,866.252 C 984.312,867.222 989.150,868.233 990.250,868.500 C 994.153,869.444 1004.418,871.468 1016.750,873.723 C 1023.625,874.981 1029.618,876.218 1030.068,876.473 C 1031.876,876.568 1034.114,877.116 1034.376,877.184 C 1034.857,877.062 1037.388,877.423 1040,877.986 C 1042.612,878.548 1046.100,879.128 1047.750,879.274 C 1049.400,879.419 1051.650,879.797 1052.750,880.113 C 1054.987,880.756 1055.523,880.840 1059.667,881.196 C 1061.271,881.334 1062.858,881.674 1066.673,882.436 C 1067.040,882.740 1069.007,883.081 1071.045,883.192 C 1076.150,883.470 1082.324,884.371 1083.524,885.013 C 1084.072,885.306 1084.745,885.408 1085.020,885.237 C 1085.294,885.068 1086.246,885.167 1087.135,885.458 C 1088.024,885.749 1090.584,886.093 1092.825,886.222 C 1095.067,886.352 1099.679,886.791 1103.075,887.198 C 1106.472,887.606 1114.200,888.317 1120.250,888.778 C 1126.300,889.239 1131.588,889.749 1132,889.912 C 1132.412,890.074 1134.213,890.253 1136,890.307 C 1137.787,890.361 1140.825,890.532 1142.750,890.686 C 1158.820,891.971 1219.085,891.789 1222.941,890.446 C 1223.809,890.143 1225.061,890.033 1225.724,890.199 C 1226.388,890.365 1227.522,890.277 1228.245,890.002 C 1228.967,889.727 1231.954,889.373 1234.880,889.215 C 1237.807,889.056 1240.625,888.701 1241.140,888.425 C 1241.656,888.149 1242.367,888.034 1242.718,888.168 C 1244.251,888.756 1270.457,883.020 1274.596,881.191 C 1275.937,880.598 1276.655,879.841 1277.221,878.427 C 1278.118,876.186 1278.217,874.693 1277.500,874.250 C 1277.225,874.080 1277,873.702 1277,873.409 C 1277,872.240 1278.362,874.067 1278.948,876.024 C 1280.002,879.542 1278.218,883.247 1273.175,888.014 C 1269.668,891.328 1268.264,892.303 1264,894.384 C 1255.354,898.604 1242.088,902.605 1230.500,904.487 C 1228.987,904.732 1225.838,905.264 1223.500,905.667 C 1217.754,906.658 1212.332,907.374 1205.750,908.010 C 1202.725,908.303 1198.225,908.755 1195.750,909.015 C 1189.366,909.686 1184.485,909.926 1165.500,910.503 C 1156.287,910.783 1148.491,911.106 1148.174,911.221 C 1147.857,911.337 1147.515,911.348 1147.415,911.248" stroke="#EB6E19" fill="#EB6E19" stroke-width="1" />
  <path id="65" d="M 808,822.755 C 803.210,821.293 797.524,819.076 798.500,819.049 C 799.553,819.021 805.101,820.669 809.243,822.242 C 814.845,824.370 814.185,824.641 808,822.755" stroke="#FF9B57" fill="#FF9B57" stroke-width="1" />
  <path id="65" d="M 1166.375,891.602 C 1161.729,891.399 1162.113,890.512 1166.875,890.447 C 1174.542,890.343 1191.392,890.628 1198.500,890.981 C 1198.500,890.981 1205.750,891.340 1205.750,891.340 C 1205.750,891.340 1199,891.442 1199,891.442 C 1183.819,891.671 1169.552,891.741 1166.375,891.602" stroke="#FF9B57" fill="#FF9B57" stroke-width="1" />
  <path id="65" d="M 937.500,857.337 C 931.312,855.914 926.859,854.680 927.601,854.594 C 928.345,854.508 930.707,854.891 932.851,855.446 C 938.562,856.920 944.931,858.363 947.500,858.763 C 948.737,858.955 950.087,859.306 950.500,859.541 C 952.139,860.477 948.416,859.846 937.500,857.337" stroke="#FF9B57" fill="#FF9B57" stroke-width="1" />
  </g><g id="surfboard 1"><path id="2" d="M 814.168,855.953 C 807.495,855.358 795.529,851.799 775.870,844.563 C 748.903,834.636 719.558,819.451 693.756,802.070 C 682.046,794.182 677.869,791.159 653.250,772.748 C 641.425,763.905 627.362,753.556 622,749.749 C 616.638,745.942 611.125,741.990 609.750,740.968 C 606.353,738.442 577.823,719.582 570.903,715.288 C 558.529,707.611 537.726,695.952 513.750,683.259 C 483.033,666.996 470.051,658.340 459.346,646.979 C 455.973,643.399 454.515,641.498 454.675,640.888 C 454.802,640.399 454.646,639.990 454.328,639.979 C 454.010,639.967 453.262,639.192 452.666,638.256 C 451.733,636.792 451.683,636.471 452.303,635.956 C 452.449,632.381 451.781,632.619 452.745,632.282 C 454.111,632.538 454.558,632.429 454.809,631.776 C 456.717,629.388 457.034,626.731 458.904,627.251 C 459.844,627.250 461.447,624.945 461.113,624.074 C 462.497,624.758 460.330,618.446 462.271,618.534 C 461.827,617.817 469.086,617.822 472.601,618.543 C 484.816,621.044 501.548,628.594 515.928,638.092 C 523.452,643.062 530.895,648.943 548.732,664.013 C 556.728,670.768 563.009,673.323 564.355,670.370 C 564.736,669.532 564.698,669.079 564.203,668.617 C 563.837,668.275 563.304,667.153 563.019,666.122 C 562.734,665.092 561.802,663.462 560.947,662.500 C 560.092,661.538 558.947,659.805 558.403,658.650 C 557.859,657.495 556.905,656.033 556.284,655.400 C 554.712,653.798 553.340,649.668 554.262,649.314 C 554.683,649.153 554.928,648.293 553.874,644.572 C 553.601,643.527 555.562,641.934 555.894,642.932 C 558.108,642.592 558.083,638.759 559.176,640.750 C 558.066,635.703 559.045,631.669 560.420,635.625 C 561.822,633.889 559.988,633.889 562.375,634.240 C 568.899,635.465 579.082,641.933 595.500,655.284 C 608.786,666.088 627.260,683.938 646.939,704.986 C 676.072,736.144 682.962,743.327 697.563,757.763 C 733.335,793.124 755.987,812.436 786.649,833.707 C 799.449,842.587 805.660,846.477 815.375,851.699 C 819.844,854.101 823.500,856.164 823.500,856.284 C 823.500,856.580 819.667,856.444 814.168,855.953" stroke="#FFF2D7" fill="#FFF2D7" stroke-width="1" />
  <path id="39" d="M 451.562,631.961 C 450.454,631.518 450.397,631.307 450.712,628.867 C 451.183,625.240 452.783,622.163 455.056,620.517 C 457.390,618.826 461.390,617.690 462.190,618.490 C 459.882,619.240 462.337,624.686 461.113,624.074 C 461.447,624.945 459.844,627.250 458.904,627.251 C 455.798,631.199 455.798,631.199 454.830,631.721 C 454.497,632.591 453.345,632.675 451.562,631.961" stroke="#F4EAD2" fill="#F4EAD2" stroke-width="1" />
  </g></svg>