<?xml version="1.0" encoding="utf-8"?>
<svg height="666" preserveAspectRatio="none" style="display: block;" version="1.1" viewBox="0 0 2048 1364" width="1000" xmlns="http://www.w3.org/2000/svg">
<defs>
<linearGradient gradientUnits="userSpaceOnUse" id="Gradient1" x1="1146.1" x2="1150.02" y1="839.501" y2="839.497">
<stop class="stop0" offset="0" stop-color="rgb(12,26,43)" stop-opacity="1"/>
<stop class="stop1" offset="1" stop-color="rgb(28,65,78)" stop-opacity="1"/>
</linearGradient>
<filter height="200%" id="shadowBlurFilter" width="200%" x="-50%" y="-50%"><feGaussianBlur in_="SourceGraphic" stdDeviation="6"/></filter></defs>
<g id="van-real-shadow" opacity="1" transform=""><ellipse cx="1064.96" cy="1118.48" fill="#000000" filter="url(#shadowBlurFilter)" opacity="0.16" rx="737.28" ry="136.4" transform="skewX(-18) scale(1,0.5) translate(380,1160)"/><path d="M 622.5920000000001 1145.76 C 917.504 1282.16 1212.416 1282.16 1507.328 1145.76 L 1507.328 1200.32 L 622.5920000000001 1200.32 Z" fill="#000000" filter="url(#vanRealShadowBlur)" opacity="0.12" transform="skewX(-18) scale(1,0.45) translate(10,4)"/></g><path d="M 444.837 165.386 C 450.06 154.841 455.541 151.251 466.591 147.511 C 493.031 138.562 522.648 135.381 550.267 131.957 C 602.805 125.673 655.548 121.25 708.398 118.696 C 821.187 112.781 934.209 112.797 1047 118.744 C 1076.59 120.369 1106.35 121.53 1135.88 124.052 C 1267.41 135.286 1396.62 160.323 1521.03 204.856 C 1559.07 218.474 1596.59 232.872 1632.75 250.999 C 1643.7 256.487 1666.49 266.776 1671.17 278.498 L 1671 281.467 C 1655.28 287.524 1485.33 284.222 1453.75 285.114 C 1455.48 293.519 1456.84 301.965 1458.18 310.438 C 1464.69 310.666 1471.22 311.883 1477.72 312.48 C 1493.5 313.933 1509.26 315.314 1525.01 317.183 C 1589.62 324.851 1680.31 335.72 1726.68 385.526 C 1730.34 389.453 1736.05 395.338 1735.79 401.036 C 1735.52 407.071 1744.26 416.511 1747.56 421.846 C 1814.45 530.218 1829.17 782.803 1800.59 904.421 C 1805.74 904.189 1810.95 903.853 1816.11 903.945 C 1821.91 904.048 1827.68 905.179 1831.71 909.743 C 1836.17 914.787 1837.19 922.078 1836.78 928.577 C 1836.08 939.522 1831.36 953.81 1822.8 961.181 C 1812 970.48 1789.34 972.126 1775.84 971.24 C 1767.87 970.717 1763.29 967.733 1758.1 961.856 C 1744.78 961.566 1731.4 962.444 1718.1 963.021 C 1719.41 974.231 1720.89 985.499 1721.25 996.79 C 1722.34 1031.18 1710.75 1069.62 1686.66 1094.87 C 1667.48 1114.97 1642.19 1125.55 1614.49 1125.9 C 1586.63 1126.26 1559.73 1116.15 1539.91 1096.41 C 1513.83 1070.43 1503.66 1033.74 1503.64 997.875 C 1486.7 1000.38 1469.24 1000.35 1452.17 1001.66 C 1399.53 1005.71 1346.81 1007.81 1294.12 1010.87 C 1279.98 1011.69 1265.76 1011.71 1251.64 1012.93 C 1249.77 1019.18 1247.74 1025.51 1245.07 1031.48 C 1235.66 1052.51 1219.01 1069.83 1197.32 1078.1 C 1176.12 1086.35 1152.47 1085.63 1131.82 1076.09 C 1112.49 1067.15 1097.45 1050.98 1089.9 1031.07 C 1089.91 1034.73 1089.85 1038.39 1089.72 1042.05 C 1088.07 1085.57 1076.57 1133.8 1043.34 1164.39 C 1019.67 1186.17 987.918 1195.08 956.234 1193.81 C 923.087 1192.49 894.168 1182.9 871.163 1157.91 C 844.837 1129.31 832.947 1087.04 834.572 1048.78 C 790.527 1049.84 746.563 1049.43 702.515 1049.6 C 666.008 1049.73 629.851 1048.89 593.387 1047.33 C 581.839 1046.84 570.222 1047.35 558.71 1046.28 C 551.661 1071.85 541.208 1093.69 522.307 1112.65 C 500.258 1134.78 473.213 1145.94 442.016 1145.97 C 413.203 1145.99 385.352 1135.51 364.921 1114.86 C 343.805 1093.52 332.891 1064.92 333.217 1035.12 C 314.435 1034.36 294.618 1032.14 276.082 1029.08 C 256.071 1025.78 236.874 1018.95 224.698 1001.71 C 216.56 990.185 208.561 968.89 211.454 954.625 C 212.06 951.637 213.347 948.739 216.054 947.115 C 222.703 943.125 238.648 947.092 246.017 948.671 C 244.967 932.323 243.19 916.068 242.745 899.676 C 242.182 878.929 243.05 858.142 242.422 837.431 C 242.111 827.174 239.166 817.141 239.503 806.834 C 240.036 790.589 245.679 774.998 247.902 758.966 C 253.758 716.728 256.849 674.505 265.093 632.534 C 267.365 620.968 269.311 608.931 273.068 597.747 C 286.168 558.756 313.018 512.758 332.702 476.171 C 344.697 453.877 357.057 431.501 370.504 410.05 C 373.935 404.576 384.596 390.861 385.448 385.147 C 382.992 384.466 379.887 384.075 378.271 381.967 C 378.313 379.512 378.982 378.148 380.378 376.132 C 390 362.239 410.878 350.647 425.498 342.866 C 491.06 307.971 566.543 293.41 639.426 283.118 C 658.088 280.483 677.143 279.727 695.648 276.355 C 696.346 264.95 697.277 253.888 700.589 242.909 C 690.308 242.795 678.778 239.87 668.467 238.363 C 625.194 232.038 483.971 209.235 453.697 183.895 C 447.464 178.678 445.508 173.225 444.837 165.386 z M 1073.11 282.353 L 1074.27 270.595 L 863.995 258.125 C 823.346 255.398 782.119 253.665 741.845 247.184 C 737.97 255.239 737.654 266.416 735.772 275.185 C 765.477 272.84 795.514 272.748 825.296 272.787 C 897.056 272.88 968.916 276.699 1040.58 280.146 C 1051.44 280.668 1062.24 281.902 1073.11 282.353 z M 1417.26 306.183 C 1415.67 298.861 1414.73 291.773 1414.1 284.312 C 1395.4 283.306 1376.44 283.609 1357.7 283.144 L 1255.11 279.708 L 1168.51 275.699 C 1150.75 274.747 1133.03 273.209 1115.24 272.887 C 1115.44 276.692 1115.22 280.638 1117.2 283.995 C 1124.79 288.528 1161.19 287.679 1173.09 288.508 C 1219.4 291.734 1265.75 294.038 1312.03 297.839 L 1379.49 302.919 C 1392.04 303.971 1404.67 305.995 1417.26 306.183 z" fill="rgb(30,52,71)" transform="translate(0,0)"/>
<path d="M 444.837 165.386 C 450.06 154.841 455.541 151.251 466.591 147.511 C 493.031 138.562 522.648 135.381 550.267 131.957 C 602.805 125.673 655.548 121.25 708.398 118.696 C 821.187 112.781 934.209 112.797 1047 118.744 C 1076.59 120.369 1106.35 121.53 1135.88 124.052 C 1267.41 135.286 1396.62 160.323 1521.03 204.856 C 1559.07 218.474 1596.59 232.872 1632.75 250.999 C 1643.7 256.487 1666.49 266.776 1671.17 278.498 L 1671 281.467 C 1655.28 287.524 1485.33 284.222 1453.75 285.114 C 1440.51 284.239 1427.36 283.7 1414.1 284.312 C 1395.4 283.306 1376.44 283.609 1357.7 283.144 L 1255.11 279.708 L 1168.51 275.699 C 1150.75 274.747 1133.03 273.209 1115.24 272.887 C 1101.67 272.261 1087.83 270.27 1074.27 270.595 L 863.995 258.125 C 823.346 255.398 782.119 253.665 741.845 247.184 C 731.213 244.517 711.73 243.059 700.589 242.909 C 690.308 242.795 678.778 239.87 668.467 238.363 C 625.194 232.038 483.971 209.235 453.697 183.895 C 447.464 178.678 445.508 173.225 444.837 165.386 z" fill="rgb(254,100,47)" transform="translate(0,0)"/>
<path d="M 444.837 165.386 C 537.508 171.843 629.749 183.046 722.229 191.772 L 1326.25 249.723 C 1399.96 256.834 1473.95 262.619 1547.76 268.531 C 1587.34 271.702 1633.02 271.286 1671 281.467 C 1655.28 287.524 1485.33 284.222 1453.75 285.114 C 1440.51 284.239 1427.36 283.7 1414.1 284.312 C 1395.4 283.306 1376.44 283.609 1357.7 283.144 L 1255.11 279.708 L 1168.51 275.699 C 1150.75 274.747 1133.03 273.209 1115.24 272.887 C 1101.67 272.261 1087.83 270.27 1074.27 270.595 L 863.995 258.125 C 823.346 255.398 782.119 253.665 741.845 247.184 C 731.213 244.517 711.73 243.059 700.589 242.909 C 690.308 242.795 678.778 239.87 668.467 238.363 C 625.194 232.038 483.971 209.235 453.697 183.895 C 447.464 178.678 445.508 173.225 444.837 165.386 z" fill="rgb(213,69,31)" transform="translate(0,0)"/>
<path d="M 1144.67 634.592 L 1549.12 628.734 C 1631.97 626.734 1714.83 625.501 1797.7 625.035 C 1811.5 699.832 1809.8 832.314 1791.81 905.709 C 1781.78 907.111 1768.48 906.584 1761.82 915.581 C 1757.72 921.12 1756.39 928.747 1754.89 935.352 C 1752.44 914.744 1747.19 892.744 1730.07 879.203 C 1723.76 874.27 1716.37 870.923 1708.5 869.442 C 1692.1 866.252 1644.36 869.28 1626.6 871.638 C 1605.01 874.506 1586.38 884.601 1573.26 902.178 C 1553.44 928.722 1554.11 968.09 1526.51 988.36 C 1481.57 992.705 1436.18 994.893 1391.12 997.391 L 1257.3 1004.63 C 1208.15 1006.91 1158.24 1011.88 1109.06 1011 C 1112.09 1000.9 1115.54 990.509 1116.92 980.022 C 1120.15 955.318 1113.05 926.048 1101.2 904.281 C 1091.08 885.677 1076.14 871.263 1055.46 865.412 C 1028.66 857.829 990.468 863.87 966.466 877.653 C 934.869 895.797 917.056 931.995 904.124 964.533 C 898.267 979.272 893.433 994.198 884.957 1007.73 C 884.197 997.241 884.034 986.141 875.248 978.836 C 871.374 975.615 865.715 974.121 860.819 973.421 C 848.739 971.694 835.459 972.802 823.266 972.985 C 802.548 973.297 781.638 973.48 760.942 974.424 C 763.743 891.778 770.525 809.316 781.264 727.323 C 784.977 700.566 788.25 672.692 794.568 646.443 C 808.527 643.732 822.522 640.887 836.688 639.497 C 877.014 635.539 918.552 637.391 959.029 636.929 L 1139.61 634.655 C 1141.43 668.298 1143.08 701.951 1144.54 735.612 C 1145.07 749.827 1143.19 766.521 1145.88 780.325 C 1146.84 769.214 1145.13 758.438 1145.24 747.377 C 1145.29 742.824 1146.6 738.56 1146.76 734.124 C 1146.91 729.85 1144.58 720.067 1146.86 716.588 C 1147.52 721.367 1144.96 727.401 1147.41 731.756 L 1149.02 730.348 C 1148.22 698.362 1145.8 666.529 1144.67 634.592 z" fill="rgb(36,180,162)" transform="translate(0,0)"/>
<path d="M 1147.18 812.362 C 1149.35 818.401 1150.39 901.94 1147.95 906.828 C 1147.71 907.301 1147.58 907.412 1147.3 907.701 C 1146.04 886.39 1147.13 864.364 1147.05 842.989 C 1101.39 845.189 1055.49 842.144 1009.85 844.074 C 948.483 846.668 917.501 880.555 893.877 933.379 C 890.286 941.407 887.429 955.598 881.791 961.728 L 879.611 961.785 L 878.418 959.971 C 878.632 942.249 912.373 886.45 926.413 872.344 C 940.174 858.728 957.17 848.832 975.806 843.587 C 1006.18 835.154 1040.37 837.765 1071.66 837.659 L 1147.1 837.2 L 1147.18 812.362 z" fill="rgb(30,52,71)" transform="translate(0,0)"/>
<path d="M 1145.88 780.325 C 1146.84 769.214 1145.13 758.438 1145.24 747.377 C 1145.29 742.824 1146.6 738.56 1146.76 734.124 C 1146.91 729.85 1144.58 720.067 1146.86 716.588 C 1147.52 721.367 1144.96 727.401 1147.41 731.756 L 1149.02 730.348 C 1150.96 761.115 1157.37 945.934 1148.12 966.143 L 1147.14 966.722 C 1142.51 955.584 1147.22 921.656 1147.3 907.701 C 1147.58 907.412 1147.71 907.301 1147.95 906.828 C 1150.39 901.94 1149.35 818.401 1147.18 812.362 C 1146.56 801.691 1146.13 791.011 1145.88 780.325 z" fill="url(#Gradient1)" transform="translate(0,0)"/>
<path d="M 1526.34 970.465 C 1527.91 970.521 1528.35 970.875 1529.68 971.656 L 1528.81 974.188 C 1526.21 976.263 1522.98 977.199 1519.69 977.483 C 1511.8 978.167 1503.62 977.84 1495.65 978.358 C 1450.32 981.305 1404.95 982.996 1359.6 985.362 C 1284.12 989.3 1208.31 994.659 1132.75 996.137 C 1131.54 996.137 1130.25 995.724 1129.06 995.469 L 1128.41 994.11 L 1129.08 992.288 C 1131.81 990.352 1135.07 989.527 1138.37 989.228 C 1149.26 988.243 1160.82 988.821 1171.8 988.405 L 1252.5 984.826 L 1526.34 970.465 z" fill="rgb(30,52,71)" transform="translate(0,0)"/>
<path d="M 1099.28 688.461 C 1102.65 688.529 1106.03 688.392 1108.78 690.656 C 1112.1 693.386 1113.91 698.42 1114.04 702.622 C 1114.17 706.451 1113.05 710.537 1110.18 713.218 C 1102.76 720.149 1075.9 717.175 1065.75 717.139 C 1062.82 717.219 1059.07 717.378 1056.68 715.477 C 1053.05 712.588 1050.97 707.499 1050.81 702.946 C 1050.68 699.368 1051.82 695.754 1054.39 693.2 C 1061.75 685.905 1089.18 688.705 1099.28 688.461 z" fill="rgb(30,52,71)" transform="translate(0,0)"/>
<path d="M 1060.35 696.098 C 1071.69 695.795 1089.68 693.195 1100.25 695.963 C 1103.84 696.903 1104.75 697.804 1106.48 700.841 C 1106.66 704.396 1105.97 706.619 1104.7 709.863 C 1093.28 710.038 1075.36 713.063 1064.85 710.144 C 1061.39 709.184 1060.56 708.227 1058.91 705.285 C 1058.62 701.902 1059.4 699.281 1060.35 696.098 z" fill="rgb(254,250,234)" transform="translate(0,0)"/>
<path d="M 1717.39 673.558 C 1726.48 673.004 1740.59 670.973 1749.18 673.52 C 1751.19 674.118 1751.39 674.367 1752.43 676.156 L 1751.73 678.597 C 1745.58 682.737 1718.28 681.576 1710.24 681.864 C 1702.48 681.936 1682.19 684.159 1676.4 680.271 L 1675.93 677.685 L 1677.28 675.984 C 1685.95 671.555 1707.15 673.744 1717.39 673.558 z" fill="rgb(30,52,71)" transform="translate(0,0)"/>
<path d="M 1728.57 694.448 C 1735.07 694.176 1746.97 692.185 1752.35 696.24 C 1752.85 698.65 1752.52 698.727 1751.35 700.776 C 1743.09 704.898 1713.81 702.864 1702.83 702.979 C 1695.76 703.091 1682.94 704.639 1676.66 701.802 L 1676 699.589 L 1677.58 697.573 C 1686.9 692.94 1716.87 694.915 1728.57 694.448 z" fill="rgb(30,52,71)" transform="translate(0,0)"/>
<path d="M 1693.38 737.481 C 1701.77 737.456 1748.11 734.881 1752.41 738.673 C 1752.61 741.182 1752.79 741.264 1751.22 743.416 C 1747.29 745.482 1742.57 744.977 1738.25 744.992 C 1727.19 744.924 1682.74 747.93 1676.34 743.682 C 1676.21 741.008 1676.25 740.883 1677.83 738.721 C 1682.09 736.601 1688.63 737.422 1693.38 737.481 z" fill="rgb(30,52,71)" transform="translate(0,0)"/>
<path d="M 1727.15 715.5 C 1733.08 715.132 1739.18 714.517 1745.12 714.749 C 1748.54 714.883 1750.46 715.364 1752.73 717.866 L 1752.51 720.54 C 1748.09 724.834 1708.48 723.871 1699.97 724.1 C 1694.39 724.583 1687.17 725.945 1681.7 724.812 C 1678.72 724.196 1678.07 723.754 1676.47 721.237 L 1677.49 719.327 C 1685.99 714.548 1716.36 715.985 1727.15 715.5 z" fill="rgb(30,52,71)" transform="translate(0,0)"/>
<path d="M 397.594 385.067 L 729.869 382.996 L 820.671 383.224 C 836.317 383.315 852.713 382.458 868.264 384.007 C 869.248 386.207 868.113 388.174 867.438 390.43 C 850.714 433.472 836.67 477.915 822.965 521.985 C 812.571 555.409 801.326 589.83 794.43 624.164 C 792.335 628.762 791.429 634.973 790.109 639.915 C 697.918 667.69 595.416 732.962 530.688 804.053 C 512.318 824.374 496.035 846.489 482.083 870.063 C 474.721 882.433 468.032 895.191 462.045 908.281 C 456.885 919.68 452.423 932.555 445.378 942.9 C 443.306 945.942 440.579 948.155 437.7 950.398 C 432.134 948.501 426.528 945.866 423.931 940.22 C 418.195 927.749 415.384 911.972 411.127 898.769 C 403.045 874.097 394.104 849.716 384.319 825.67 C 355.61 754.329 315.219 680.499 277.527 613.297 C 286.369 575.242 373.147 415.186 397.594 385.067 z" fill="rgb(254,250,234)" transform="translate(0,0)"/>
<path d="M 683.069 395.5 C 710.79 394.411 738.537 395.484 766.241 396.402 C 781.186 396.897 796.318 396.59 811.188 398.256 C 812.844 399.318 814.495 400.406 815.961 401.727 C 819.166 404.614 820.968 408.007 821.061 412.365 C 821.453 430.758 782.777 560.163 770.481 572.439 C 766.872 576.042 762.671 579.047 757.728 580.465 C 739.97 585.56 681.523 582.987 660.25 582.968 L 581.795 583.06 C 567.57 583.071 552.71 583.999 538.587 582.518 C 534.179 582.056 529.198 581.38 525.727 578.395 C 522.187 575.351 520.412 571.337 520.221 566.699 C 519.627 552.273 565.962 442.958 575.491 424.548 C 578.879 418.002 582.769 411.669 587.887 406.317 C 591.617 402.417 595.204 400.412 600.406 398.979 C 618.363 394.03 662.051 396.099 683.069 395.5 z" fill="rgb(30,52,71)" transform="translate(0,0)"/>
<path d="M 631.181 574.411 C 614.317 573.49 539.954 577.21 530.792 570.822 C 529.708 569.041 529.121 567.513 529.076 565.398 C 528.812 553.103 574.427 445.782 582.723 429.381 C 585.716 423.462 589.158 417.515 593.871 412.786 C 597.093 409.554 600.56 407.493 605.044 406.542 C 617.437 403.914 631.684 405.122 644.407 405.064 L 715.901 405.048 C 728.772 405.227 805.927 403.928 810.523 408.402 C 812.129 409.965 812.087 413.239 812.009 415.369 C 811.267 435.755 781.396 529.99 771.774 552.313 C 768.999 558.751 765.287 565.537 760.216 570.475 C 758.513 572.133 756.356 572.828 754.059 573.213 C 740.777 575.435 726.113 574.471 712.672 574.553 C 685.508 574.65 658.344 574.603 631.181 574.411 z" fill="rgb(50,170,201)" transform="translate(0,0)"/>
<path d="M 715.901 405.048 C 728.772 405.227 805.927 403.928 810.523 408.402 C 812.129 409.965 812.087 413.239 812.009 415.369 C 811.267 435.755 781.396 529.99 771.774 552.313 C 768.999 558.751 765.287 565.537 760.216 570.475 C 758.513 572.133 756.356 572.828 754.059 573.213 C 740.777 575.435 726.113 574.471 712.672 574.553 C 685.508 574.65 658.344 574.603 631.181 574.411 C 651.116 539.975 668.453 504.545 686.027 468.877 C 696.22 448.19 708.05 426.681 715.901 405.048 z" fill="rgb(11,128,158)" transform="translate(0,0)"/>
<path d="M 432.67 396.442 C 446.433 395.668 545.943 395.121 554.82 399.847 C 560.232 402.727 561.536 407.454 563.269 412.891 C 558.576 432.456 506 561.343 494.986 572.453 C 483.94 583.595 462.879 581.118 448.5 580.961 C 427.935 581.086 407.303 580.279 386.733 579.995 C 368.556 579.745 348.449 580.602 330.532 577.541 C 327.087 576.952 323.984 576.107 321.346 573.673 C 318.48 571.029 316.569 567.065 316.477 563.149 C 316.379 558.941 317.971 554.786 319.673 551.008 C 330.122 527.816 344.074 505.229 356.299 482.861 C 366.627 463.966 388.078 419.64 400.806 405.859 C 409.204 396.766 421.258 397.043 432.67 396.442 z" fill="rgb(30,52,71)" transform="translate(0,0)"/>
<path d="M 417.781 405.81 C 426.712 404.341 436.437 405.056 445.513 405.065 C 462.994 405.043 480.474 405.188 497.952 405.499 C 511.403 405.699 525.285 404.685 538.667 405.773 C 542.391 406.076 548.5 406.542 551.602 408.758 C 552.815 409.626 552.777 410.388 552.889 411.842 C 553.302 417.206 551.299 423.602 549.595 428.619 C 541.964 451.088 531.214 473.103 521.886 494.961 C 513.629 514.309 506.22 534.881 496.558 553.536 C 494.165 558.158 491.298 562.797 487.769 566.646 C 482.777 572.091 475.065 571.945 468.084 572.133 C 437.801 572.946 406.477 572.489 376.22 571.075 C 364.927 570.501 333.769 573.079 325.807 565.856 C 325.061 561.356 327.254 555.716 329.015 551.614 C 336.207 534.86 346.685 518.417 355.469 502.384 C 369.333 477.081 382.708 451.273 397.516 426.514 C 402.411 418.328 407.941 408.274 417.781 405.81 z" fill="rgb(11,128,158)" transform="translate(0,0)"/>
<path d="M 376.22 571.075 C 364.927 570.501 333.769 573.079 325.807 565.856 C 325.061 561.356 327.254 555.716 329.015 551.614 C 336.207 534.86 346.685 518.417 355.469 502.384 C 369.333 477.081 382.708 451.273 397.516 426.514 C 402.411 418.328 407.941 408.274 417.781 405.81 C 441.106 406.307 464.434 405.875 487.759 406.157 C 469.587 439.083 448.785 471.077 428.146 502.504 C 417.329 518.977 406.918 536.438 394.623 551.837 C 389.058 558.806 382.031 564.366 376.22 571.075 z" fill="rgb(50,170,201)" transform="translate(0,0)"/>
<path d="M 456.508 635.327 C 466.931 634.125 481.107 638.318 489.877 644.002 C 504.041 653.181 512.834 668.292 516.166 684.615 C 521.553 711.012 513.359 739.342 498.645 761.452 C 486.836 779.198 471.09 791.723 449.997 795.899 C 436.881 797.426 423.663 794.593 412.882 786.779 C 398.213 776.147 390.174 757.444 387.378 740.019 C 383.218 714.095 389.192 686.629 404.851 665.404 C 418.27 647.215 434.553 638.517 456.508 635.327 z" fill="rgb(30,52,71)" transform="translate(0,0)"/>
<path d="M 488.378 658.433 C 497.146 665.718 501.293 672.567 505.328 683.207 C 500.545 693.552 493.488 703.452 487.557 713.208 C 477.317 729.849 467.437 746.709 457.923 763.776 L 453.927 770.138 C 451.464 758.019 450.155 745.225 446.543 733.406 C 459.928 708.113 475.09 683.78 488.378 658.433 z" fill="rgb(254,250,234)" transform="translate(0,0)"/>
<path d="M 423.499 661.879 C 427.484 669.916 433.061 723.789 433.797 735.354 C 428.184 746.472 422.588 757.576 416.428 768.405 C 413.532 741.856 409.697 714.875 404.727 688.632 C 408.887 678.097 415.605 669.807 423.499 661.879 z" fill="rgb(254,250,234)" transform="translate(0,0)"/>
<path d="M 451.818 647.208 C 462.335 645.812 470.944 648.019 480.713 651.567 C 470.866 670.112 459.679 687.981 449.737 706.5 L 442.009 721.244 C 440.94 698.99 436.524 676.216 433.294 654.152 C 439.359 651.266 445.427 649.205 451.818 647.208 z" fill="rgb(254,250,234)" transform="translate(0,0)"/>
<path d="M 506.679 701.732 C 507.544 707.682 506.217 715.04 504.822 720.824 C 498.734 746.08 483.712 768.51 461.463 782.038 C 461.263 773.977 499.172 713.317 506.679 701.732 z" fill="rgb(254,250,234)" transform="translate(0,0)"/>
<path d="M 438.68 748.695 C 439.314 749.454 439.846 750.04 440.176 750.994 C 442.258 757.012 447.507 780.434 445.095 785.585 C 441.095 786.394 437.295 785.243 433.372 784.412 L 421.6 780.231 C 427.699 769.99 433.064 759.212 438.68 748.695 z" fill="rgb(254,250,234)" transform="translate(0,0)"/>
<path d="M 397.51 708.813 C 400.733 712.083 405.808 756.61 405.821 763.061 C 397.355 747.232 393.412 726.447 397.51 708.813 z" fill="rgb(254,250,234)" transform="translate(0,0)"/>
<path d="M 1114.74 390.647 L 1115.34 388.632 C 1124.2 386.317 1151.29 389.229 1161.56 389.537 L 1280.54 393.207 L 1627.5 404.964 C 1658.83 406.188 1696.06 404.076 1726.58 407.941 C 1769.26 460.963 1785.56 549.936 1796.77 616.681 C 1638.12 619.945 1479.45 622.1 1320.77 623.145 C 1261.98 623.642 1203.06 626.478 1144.29 626.044 C 1144.08 620.991 1144.24 615.556 1143.1 610.633 C 1143.01 594.359 1140.47 576.992 1138.87 560.766 C 1135.54 527.17 1132.02 493.188 1126.18 459.933 C 1123.88 437.227 1120.25 412.753 1114.74 390.647 z" fill="rgb(254,250,234)" transform="translate(0,0)"/>
<path d="M 1171.7 407.43 C 1187.83 407.268 1203.97 408.669 1220.1 408.864 C 1241.81 409.128 1265.28 407.634 1286.72 410.674 C 1291.78 411.391 1297.67 412.543 1301.59 416.01 C 1305.47 419.504 1308.4 423.929 1310.09 428.869 C 1315.01 443.185 1316.53 460.222 1319.08 475.137 C 1323.67 502.034 1329.66 530.237 1331.38 557.451 C 1331.81 564.212 1331.4 570.04 1326.43 575.257 C 1321.86 580.048 1316.49 580.959 1310.25 581.081 L 1230.72 581.678 C 1216.05 581.779 1200.67 582.819 1186.12 581.385 C 1181.57 580.936 1175.6 580.103 1171.89 577.185 C 1167.92 574.057 1165.91 568.278 1164.71 563.527 C 1161.26 549.803 1160.84 534.511 1158.98 520.438 C 1155.37 493.162 1151.04 465.771 1148.27 438.408 C 1147.51 430.957 1146.29 418.833 1151.6 412.807 C 1156.74 406.969 1164.62 407.712 1171.7 407.43 z" fill="rgb(30,52,71)" transform="translate(0,0)"/>
<path d="M 1175.53 568.531 C 1174.36 565.961 1173.46 563.275 1172.86 560.516 C 1168.55 541.123 1167.3 519.81 1164.67 499.998 C 1161.76 478.032 1156.88 454.692 1156.27 432.668 C 1156.14 427.98 1156.37 422.2 1158.91 418.14 C 1166.57 414.068 1233.44 417.834 1247.03 417.885 C 1257.13 417.951 1290.01 416.314 1297.22 423.999 C 1300.48 427.473 1302.21 432.598 1303.45 437.092 C 1307.65 452.289 1323.78 546.486 1322.81 559.431 C 1322.54 562.986 1321.67 567.046 1318.84 569.476 C 1315.9 571.995 1310.66 572.713 1306.92 573.056 C 1284.14 575.139 1259.99 573.389 1237.06 573.388 C 1220.45 573.387 1202.36 575.381 1185.96 573.064 C 1182.03 572.508 1178.37 571.471 1175.53 568.531 z" fill="rgb(11,128,158)" transform="translate(0,0)"/>
<path d="M 1175.53 568.531 C 1174.36 565.961 1173.46 563.275 1172.86 560.516 C 1168.55 541.123 1167.3 519.81 1164.67 499.998 C 1161.76 478.032 1156.88 454.692 1156.27 432.668 C 1156.14 427.98 1156.37 422.2 1158.91 418.14 C 1166.57 414.068 1233.44 417.834 1247.03 417.885 C 1229.94 461.886 1205.19 533.539 1175.53 568.531 z" fill="rgb(50,170,201)" transform="translate(0,0)"/>
<path d="M 1362.07 414.161 C 1379.97 412.748 1473.73 413.462 1488.44 418.324 C 1494.36 420.281 1497.52 425.877 1500.06 431.234 C 1507.53 446.997 1524.45 529.902 1526.8 549.78 C 1527.48 555.543 1528.76 564.382 1526.47 569.924 C 1524.57 574.52 1519.32 576.4 1515.12 578.269 C 1498.27 580.856 1392.48 581.396 1380.55 578.332 C 1376.26 577.23 1372.28 573.725 1370.25 569.758 C 1366.16 561.752 1351.87 455.388 1350.67 439.658 C 1350.3 434.761 1349.6 428.267 1351.39 423.619 C 1353.32 418.625 1357.58 416.384 1362.07 414.161 z" fill="rgb(30,52,71)" transform="translate(0,0)"/>
<path d="M 1382.79 571.181 C 1382.47 570.929 1382.16 570.671 1381.84 570.425 C 1380.08 569.071 1379.01 568.086 1378.15 565.965 C 1374.59 557.242 1359.82 453.471 1359.06 439.749 C 1358.8 435.053 1358.96 430.502 1360.77 426.11 C 1363.76 423.609 1367.35 423.041 1371.14 422.686 C 1380.38 421.822 1390.12 422.841 1399.4 423.187 C 1413.98 423.856 1428.57 424.162 1443.16 424.105 C 1454 424.015 1480.06 421.189 1488.18 428.374 C 1491.73 431.507 1494 438.257 1495.4 442.651 C 1500.79 459.547 1518.58 540.648 1518.65 555.92 C 1518.67 560.438 1518.29 565.218 1515.16 568.717 C 1501.09 573.776 1405.83 570.889 1382.79 571.181 z" fill="rgb(11,128,158)" transform="translate(0,0)"/>
<path d="M 1382.79 571.181 C 1382.47 570.929 1382.16 570.671 1381.84 570.425 C 1380.08 569.071 1379.01 568.086 1378.15 565.965 C 1374.59 557.242 1359.82 453.471 1359.06 439.749 C 1358.8 435.053 1358.96 430.502 1360.77 426.11 C 1363.76 423.609 1367.35 423.041 1371.14 422.686 C 1380.38 421.822 1390.12 422.841 1399.4 423.187 C 1413.98 423.856 1428.57 424.162 1443.16 424.105 C 1440.22 438.505 1389.2 564.565 1382.79 571.181 z" fill="rgb(50,170,201)" transform="translate(0,0)"/>
<path d="M 1549.44 420.255 C 1566.05 419.054 1639.02 419.195 1651.44 424.121 C 1659.14 427.172 1664.99 433.391 1668.28 440.878 C 1677.1 460.993 1695.23 529.885 1696.83 551.938 C 1697.16 556.556 1696.78 561.82 1694.9 566.115 C 1692.42 571.763 1688.53 573.943 1683.13 576.138 C 1667.92 579.068 1650.02 577.621 1634.46 577.753 C 1618.17 577.891 1601.2 578.953 1584.98 577.722 C 1581.18 577.434 1570.59 576.593 1568.18 573.224 C 1565.26 569.129 1563.5 563.214 1562.21 558.415 C 1558.76 545.581 1536.99 438.96 1538.74 432.525 C 1540.4 426.404 1544.2 423.224 1549.44 420.255 z" fill="rgb(30,52,71)" transform="translate(0,0)"/>
<path d="M 1580.77 569.658 C 1578.29 568.815 1575.85 567.946 1573.96 566.045 C 1570.11 562.159 1547.96 450.845 1547.88 439.072 C 1547.87 437.024 1547.83 431.717 1549.51 430.411 C 1556.25 425.142 1602.69 428.999 1613.92 428.957 L 1615.12 429.103 C 1626.71 430.462 1647.86 427.057 1655.79 437.265 C 1666.95 451.628 1689.47 539.411 1687.03 557.786 C 1686.7 560.252 1685.99 564.022 1683.92 565.595 C 1674.14 573.005 1598.36 569.128 1580.77 569.658 z" fill="rgb(11,128,158)" transform="translate(0,0)"/>
<path d="M 1580.77 569.658 C 1578.29 568.815 1575.85 567.946 1573.96 566.045 C 1570.11 562.159 1547.96 450.845 1547.88 439.072 C 1547.87 437.024 1547.83 431.717 1549.51 430.411 C 1556.25 425.142 1602.69 428.999 1613.92 428.957 C 1614.75 429.884 1615.46 430.146 1615.36 431.436 C 1614.26 446.24 1587.28 558.564 1580.77 569.658 z" fill="rgb(50,170,201)" transform="translate(0,0)"/>
<path d="M 781.272 282.554 C 820.906 280.372 861.2 282.394 900.868 283.462 C 992.623 285.931 1083.93 291.965 1175.51 297.899 L 1388.28 313.233 C 1462.1 318.945 1536.91 324.906 1609.56 339.688 C 1650.11 347.939 1699.91 362.692 1724.01 399.169 C 1680.52 399.365 1636.96 396.602 1593.51 394.989 L 1403.55 389.167 C 1383.33 388.578 1363.17 387.221 1342.94 386.793 C 1329.09 385.882 1315.03 386.077 1301.14 385.518 L 1149.71 380.938 C 1002.63 376.524 855.501 374.346 708.36 374.404 L 475.5 375.304 C 447.898 375.477 420.393 376.901 392.763 376.697 C 458.469 313.922 624.739 290.643 713.938 284.611 C 736.266 283.101 758.898 283.18 781.272 282.554 z" fill="rgb(254,250,234)" transform="translate(0,0)"/>
<path d="M 274.718 623.434 C 280.26 628.495 287.877 646.09 291.685 653.162 C 327.633 719.937 362.715 787.876 389.973 858.715 C 396.704 876.209 402.548 894.157 408.061 912.069 C 411.057 921.804 413.377 932.092 417.283 941.476 C 419.436 946.648 422.278 950.821 427.154 953.768 C 430.822 955.985 435.764 957.429 440.02 956.312 C 455.156 952.337 464.853 918.101 471.058 905.14 C 475.721 895.399 481.148 885.895 486.578 876.562 C 538.553 787.229 626.783 721.649 718.615 677.147 C 740.807 666.393 764.809 655.054 788.702 648.72 C 779.207 696.003 774.41 743.437 768.26 791.152 C 762.334 852.218 757.858 913.415 754.836 974.692 C 649.07 974.862 543.32 972.071 437.71 966.323 C 401.17 964.619 364.658 962.341 328.19 959.487 C 303.597 957.558 277.929 956.018 253.803 950.837 C 249.314 916.401 249.69 881.096 250.013 846.44 C 257.025 855.207 264.793 865.02 276.642 866.799 C 285.165 868.079 294.112 864.247 300.728 859.078 C 313.095 849.418 319.083 832.634 320.68 817.493 C 322.752 797.846 318.27 776.652 305.499 761.186 C 299.417 753.82 290.896 747.437 281.088 746.621 C 271.143 745.794 263.759 750.415 256.399 756.535 C 257.352 746.2 256.766 734.974 259.376 724.927 C 261.507 722.586 266.223 727.33 269.643 726.745 C 274.44 725.924 278.12 723.028 280.944 719.207 C 287.053 710.941 289.498 698.547 287.96 688.478 C 287.102 682.865 284.675 677.435 279.869 674.108 C 275.351 670.98 271.125 672.165 266.135 673.121 C 268.574 656.489 271.436 639.921 274.718 623.434 z" fill="rgb(36,180,162)" transform="translate(0,0)"/>
<path d="M 651.824 767.252 C 688.775 762.864 722.361 789.064 727.098 825.972 C 731.834 862.879 705.952 896.712 669.091 901.796 C 631.735 906.949 597.347 880.643 592.547 843.239 C 587.747 805.836 614.377 771.698 651.824 767.252 z" fill="rgb(30,52,71)" transform="translate(0,0)"/>
<path d="M 655.028 774.255 C 688.154 771.583 717.221 796.161 720.09 829.271 C 722.96 862.38 698.555 891.593 665.463 894.66 C 632.091 897.753 602.577 873.097 599.683 839.707 C 596.789 806.317 621.621 776.95 655.028 774.255 z" fill="rgb(254,250,234)" transform="translate(0,0)"/>
<path d="M 653.879 780.334 C 664.849 779.722 675.413 781.369 684.896 787.243 C 696.24 794.269 703.77 806.14 706.771 818.997 C 710.416 834.62 708.032 851.853 699.345 865.447 C 689.972 880.114 677.058 886.074 660.577 889.572 C 649.035 890.26 636.696 887.071 627.255 880.304 C 615.997 872.234 609.294 859.503 607.166 845.977 C 604.75 830.619 609.034 813.536 618.263 801.047 C 627.293 788.828 639.067 782.57 653.879 780.334 z" fill="rgb(30,52,71)" transform="translate(0,0)"/>
<path d="M 649.123 787.342 C 660.158 786.731 669.592 786.333 679.628 791.936 C 689.882 797.661 697.581 807.868 700.624 819.177 C 704.254 832.664 702.374 848.572 695.251 860.627 C 688.875 871.419 679.046 878.609 666.988 881.794 C 656.68 883.226 646.62 883.1 637.046 878.565 C 626.781 873.703 619.399 864.661 615.697 854.014 C 611.115 840.836 612.189 825.468 618.406 813.004 C 624.899 799.99 635.528 791.86 649.123 787.342 z" fill="rgb(254,250,234)" transform="translate(0,0)"/>
<path d="M 715.675 697.82 C 732.141 695.136 747.668 706.298 750.369 722.761 C 753.071 739.224 741.925 754.763 725.465 757.481 C 708.981 760.204 693.414 749.038 690.709 732.551 C 688.003 716.064 699.185 700.509 715.675 697.82 z" fill="rgb(30,52,71)" transform="translate(0,0)"/>
<path d="M 715.163 704.212 C 720.267 703.522 724.893 703.669 729.71 705.591 C 735.21 707.786 739.53 711.908 741.83 717.386 C 744.271 723.201 744.138 730.104 741.745 735.91 C 738.303 744.264 732.537 747.775 724.481 751.079 C 720.166 752.112 715.461 751.41 711.316 749.947 C 705.807 748.002 701.768 744.01 699.43 738.697 C 696.782 732.677 696.948 725.637 699.363 719.577 C 702.503 711.695 707.559 707.525 715.163 704.212 z" fill="rgb(254,100,47)" transform="translate(0,0)"/>
<path d="M 872.883 390.616 C 874.26 387.866 874.921 385.58 877.563 383.856 C 898.707 382.3 920.264 384.602 941.454 384.89 C 997.208 385.646 1053.07 387.684 1108.82 387.479 L 1110.39 395.813 L 1111.2 393.682 L 1112.4 396.625 C 1114.16 394.967 1114.21 392.951 1114.74 390.647 C 1120.25 412.753 1123.88 437.227 1126.18 459.933 C 1132.02 493.188 1135.54 527.17 1138.87 560.766 C 1140.47 576.992 1143.01 594.359 1143.1 610.633 C 1142.94 613.362 1142.79 616.046 1142.82 618.78 C 1142.84 620.687 1142.49 621.616 1141.57 623.267 L 1138.9 624.036 L 1137.85 625.665 C 1124 627.803 1094.53 626.129 1078.94 626.422 L 919.493 628.541 C 878.534 629.404 836.312 628.028 796.429 638.617 C 797.185 635.196 798.528 631.132 798.752 627.68 C 812.516 574.779 828.038 522.352 845.292 470.484 C 851.039 453.242 856.963 436.059 863.063 418.938 C 866.366 409.688 870.576 400.151 872.883 390.616 z" fill="rgb(254,250,234)" transform="translate(0,0)"/>
<path d="M 1110.39 395.813 L 1111.2 393.682 L 1112.4 396.625 C 1114.16 394.967 1114.21 392.951 1114.74 390.647 C 1120.25 412.753 1123.88 437.227 1126.18 459.933 C 1132.02 493.188 1135.54 527.17 1138.87 560.766 C 1140.47 576.992 1143.01 594.359 1143.1 610.633 C 1142.94 613.362 1142.79 616.046 1142.82 618.78 C 1142.84 620.687 1142.49 621.616 1141.57 623.267 L 1138.9 624.036 C 1135.61 602.855 1135.45 580.427 1133.46 558.985 C 1130.52 527.162 1125.97 495.4 1121.46 463.762 C 1117.54 441.167 1114.19 418.438 1110.39 395.813 z" fill="rgb(19,30,47)" transform="translate(0,0)"/>
<path d="M 903.395 402.262 C 905.401 402.121 907.41 402.015 909.42 401.942 C 933.516 401.081 957.744 401.929 981.857 401.984 C 1005.68 402.038 1030.95 400.916 1054.55 403.832 C 1059 404.383 1064.54 404.945 1067.91 408.176 C 1072.65 412.712 1075.75 418.715 1077.88 424.858 C 1086.86 450.759 1095.84 525.846 1096.61 554.672 C 1096.78 561.275 1096.25 572.635 1091.13 577.524 C 1081.25 586.97 1047.6 583.907 1034.25 583.821 L 920.266 583.839 C 896.181 583.838 869.307 586.251 845.767 580.79 C 843.466 578.322 840.837 575.767 839.619 572.562 C 833.355 556.085 868.641 444.396 877.777 424.555 C 883.895 411.267 890.039 407.183 903.395 402.262 z" fill="rgb(30,52,71)" transform="translate(0,0)"/>
<path d="M 927.02 410.009 L 1002.81 411.542 C 1018.75 411.761 1035.51 410.961 1051.34 412.765 C 1055.44 413.233 1061.51 413.79 1064.46 416.972 C 1076.49 429.975 1089.44 541.567 1087.8 561.734 C 1087.51 565.287 1086.92 568.187 1085.28 571.385 C 1081.36 573.784 1075.23 573.936 1070.72 574.176 C 1054.33 575.047 1037.63 574.417 1021.2 574.445 L 934.697 574.711 C 918.2 574.724 867.523 576.792 854.132 573.502 C 852.288 573.049 850.653 572.11 849.078 571.082 C 849.003 570.923 848.93 570.764 848.852 570.607 C 847.86 568.595 846.933 566.659 846.885 564.368 C 846.512 546.599 873.031 459.42 880.928 439.529 C 883.888 432.073 887.817 422.028 893.686 416.524 C 902.237 408.504 916.261 409.948 927.02 410.009 z" fill="rgb(11,128,158)" transform="translate(0,0)"/>
<path d="M 849.078 571.082 C 849.003 570.923 848.93 570.764 848.852 570.607 C 847.86 568.595 846.933 566.659 846.885 564.368 C 846.512 546.599 873.031 459.42 880.928 439.529 C 883.888 432.073 887.817 422.028 893.686 416.524 C 902.237 408.504 916.261 409.948 927.02 410.009 C 918.441 434.276 909.686 458.482 900.756 482.623 C 893.697 501.732 887.295 520.809 877.371 538.694 C 870.304 551.431 852.18 564.524 849.078 571.082 z" fill="rgb(50,170,201)" transform="translate(0,0)"/>
<path d="M 220.131 953.923 C 237.437 954.947 254.984 958.994 272.216 961.341 C 297.826 964.634 323.528 967.153 349.29 968.895 C 488.475 978.575 627.985 982.844 767.502 981.694 C 786.709 981.549 805.915 981.269 825.118 980.854 C 837.741 980.638 851.987 979.185 864.352 981.737 C 866.99 982.282 869.055 983.497 871.035 985.298 C 875.695 989.538 877.168 995.895 877.277 1001.96 C 877.462 1012.28 874.396 1022.78 867.117 1030.24 C 862.317 1033.34 857.615 1036.33 851.98 1037.62 C 826.862 1043.39 784.598 1041.79 757.507 1041.81 C 726.6 1041.83 695.646 1042.13 664.745 1041.69 C 578.444 1040.23 492.177 1037.18 405.988 1032.55 C 363.372 1030.07 304.675 1028.33 264.389 1017.86 C 253.745 1015.1 244.573 1011.25 236.843 1003.15 C 224.114 989.801 219.653 971.84 220.131 953.923 z" fill="rgb(254,250,234)" transform="translate(0,0)"/>
<path d="M 997.654 963.181 C 1005.52 962.381 1013.1 964.001 1020.04 967.778 C 1035.23 976.039 1043.88 992.879 1048.34 1008.94 C 1055.36 1034.18 1053.86 1066.16 1040.76 1089.14 C 1033.38 1102.06 1023.41 1111.03 1008.98 1114.95 C 1000.07 1116.38 992.598 1115.64 984.475 1111.39 C 971.063 1104.38 963.022 1090.38 958.621 1076.39 C 950.085 1049.25 951.548 1015.1 965.2 989.832 C 972.695 975.957 982.688 967.697 997.654 963.181 z" fill="rgb(254,250,234)" transform="translate(0,0)"/>
<path d="M 1029.14 1006.99 C 1025.23 998.373 1020.73 989.581 1013.18 983.551 C 999.425 972.566 994.648 980.005 981.427 981.131 C 980.427 981.216 980.333 980.819 979.6 980.206 C 979.703 979.769 979.756 979.318 979.909 978.896 C 980.859 976.262 985.064 973.236 987.482 972.123 C 993.767 969.228 1001.42 970.879 1007.54 973.408 C 1019.19 978.216 1027.37 988.628 1032.05 1000.02 C 1042.81 1020.21 1042.77 1047.41 1036.07 1069.01 C 1031.95 1082.29 1023.62 1096.7 1010.85 1103.3 C 1005.35 1106.14 998.839 1107.23 992.868 1105.18 C 989.572 1104.05 985.329 1101.99 983.12 1099.25 L 983.184 1097.34 L 982.782 1098.63 L 984.184 1096.9 C 998.642 1095.52 1004.63 1107.14 1019.08 1089.35 C 1032.86 1072.39 1036.35 1048.48 1034.03 1027.33 C 1033.25 1020.22 1031.68 1013.67 1029.14 1006.99 z" fill="rgb(30,52,71)" transform="translate(0,0)"/>
<path d="M 1642.99 923.348 C 1650.38 923.589 1656.95 925.478 1663.15 929.565 C 1677.77 939.216 1685.63 957.842 1688.88 974.436 C 1693.48 997.943 1690.84 1026.23 1676.99 1046.25 C 1668.94 1057.89 1659.55 1063.84 1645.77 1066.38 C 1636.15 1066.31 1628.37 1063.61 1620.88 1057.49 C 1604.71 1044.24 1598.22 1022.1 1596.5 1001.99 C 1594.73 981.172 1598.9 955.477 1612.74 939.188 C 1621.06 929.381 1630.26 924.469 1642.99 923.348 z" fill="rgb(254,250,234)" transform="translate(0,0)"/>
<path d="M 1632.17 931.168 C 1634.35 931.054 1636.56 930.93 1638.73 931.079 C 1647.37 931.671 1655.34 936.57 1660.95 942.976 C 1674.29 958.22 1678.95 982.813 1677.58 1002.5 C 1676.42 1019.08 1670.99 1038.88 1657.89 1050.13 C 1653.23 1054.14 1647.18 1056.87 1640.91 1056.26 C 1636.04 1055.79 1628.81 1054.42 1625.92 1050.02 C 1624.35 1047.63 1624.9 1046.23 1625.45 1043.64 C 1629.49 1045.96 1633.7 1048.82 1638.39 1049.4 C 1644.44 1050.15 1650.43 1048.16 1655.1 1044.34 C 1665.86 1035.54 1670.41 1019.06 1671.63 1005.79 C 1673.38 986.794 1670.26 962.828 1657.37 947.83 C 1645.36 933.865 1636.92 940.711 1621.29 939.605 L 1620.63 937.21 L 1621.22 939.537 L 1621.3 936.659 C 1624.89 934.212 1628.05 932.547 1632.17 931.168 z" fill="rgb(30,52,71)" transform="translate(0,0)"/>
<path d="M 295.432 825.268 C 292.064 833.822 287.458 843.94 279.001 848.58 C 274.914 850.803 270.109 851.305 265.651 849.976 C 260.645 848.439 256.882 844.132 254.427 839.678 C 245.644 823.745 245.667 798.982 250.958 781.98 C 253.043 775.284 256.882 767.712 263.541 764.576 C 267.647 762.642 272.129 762.959 276.237 764.708 C 286.593 769.116 291.496 778.925 295.573 788.679 C 297.286 801.185 297.711 812.744 295.432 825.268 z" fill="rgb(254,250,234)" transform="translate(0,0)"/>
<path d="M 1787.35 913.36 C 1796.21 912.273 1813.25 910.548 1821.37 913.566 C 1824.42 914.702 1826.97 916.992 1828.18 920.04 C 1830.8 926.654 1827.54 936.737 1824.65 942.863 C 1820.07 952.553 1814.4 957.728 1804.49 961.395 C 1795.99 962.039 1776.78 965.462 1769.67 960.948 C 1766.71 959.069 1765.25 954.792 1764.46 951.514 C 1762.32 942.61 1761.8 927.656 1767.22 919.738 C 1770.81 914.485 1781.42 914.205 1787.35 913.36 z" fill="rgb(254,250,234)" transform="translate(0,0)"/>
<path d="M 295.583 775.391 C 289.623 761.47 275.334 761.037 272.075 755.151 C 277.619 753.313 283.343 753.775 288.575 756.378 C 299.872 761.999 307.605 775.011 311.265 786.641 C 316.977 804.436 315.221 823.787 306.399 840.264 C 302.036 848.358 296.149 855.396 287.048 858.148 C 281.981 859.681 274.956 860.074 270.224 857.482 C 273.468 856.194 276.977 855.933 280.181 854.629 C 287.742 851.553 294.033 843.305 297.121 836.01 C 297.719 834.597 298.477 832.865 298.676 831.354 L 297.819 828.598 C 298.331 826.636 298.653 825.419 298.066 823.393 C 297.487 824.838 296.879 826.271 296.242 827.691 L 295.432 825.268 C 297.711 812.744 297.286 801.185 295.573 788.679 L 296.651 787.967 L 295.983 788.229 L 297.792 790.267 C 299.866 788.162 294.102 778.906 295.583 775.391 z" fill="rgb(254,250,234)" transform="translate(0,0)"/>
<path d="M 295.573 788.679 L 296.651 787.967 L 295.983 788.229 L 297.792 790.267 C 299.866 788.162 294.102 778.906 295.583 775.391 C 303.716 789.419 305.096 808.45 301.122 823.994 C 300.481 826.501 299.594 828.937 298.676 831.354 L 297.819 828.598 C 298.331 826.636 298.653 825.419 298.066 823.393 C 297.487 824.838 296.879 826.271 296.242 827.691 L 295.432 825.268 C 297.711 812.744 297.286 801.185 295.573 788.679 z" fill="rgb(19,30,47)" transform="translate(0,0)"/>
<path d="M 272.363 677.483 C 274.787 678.125 276.66 679.443 278.308 681.35 C 281.671 685.24 282.533 691.347 282.199 696.331 C 281.536 706.239 278.176 713.973 270.662 720.41 C 269.875 720.602 269.829 720.65 268.91 720.676 C 266.64 720.739 265.08 719.556 263.45 718.154 C 261.011 713.91 260.867 709.431 261.201 704.67 C 261.914 694.498 264.44 684.302 272.363 677.483 z" fill="rgb(254,100,47)" transform="translate(0,0)"/>
</svg>